<?xml version="1.0" encoding="UTF-8"?>
<svg width="24px" height="24px" viewBox="0 0 24 24" version="1.1" xmlns="http://www.w3.org/2000/svg" xmlns:xlink="http://www.w3.org/1999/xlink">
    <!-- Generator: Sketch 52.2 (67145) - http://www.bohemiancoding.com/sketch -->
    <title>Tags</title>
    <desc>Tags</desc>
    <g id="Tags" fill="#000" fill-rule="nonzero" stroke="none" stroke-width="1">
        <path id="Line-34" d="M2.39 12.543A4.5 4.5 0 0 1 1 9.29V3.5A1.5 1.5 0 0 1 2.5 2h5.79a4.5 4.5 0 0 1 3.253 1.39l9.142 9.558a1.5 1.5 0 0 1-.023 2.097l-6.617 6.617a1.5 1.5 0 0 1-2.097.023l-9.559-9.142zm.69-.723l9.559 9.143a.5.5 0 0 0 .699-.008l6.617-6.617a.5.5 0 0 0 .008-.7L10.82 4.082A3.5 3.5 0 0 0 8.29 3H2.5a.5.5 0 0 0-.5.5v5.79a3.5 3.5 0 0 0 1.08 2.53z"/>
        <path id="Line-34-Copy" d="M14.793 22.5l8.146-8.146a.5.5 0 0 0 0-.708L11.793 2.5a1 1 0 0 1 1.414 0l10.44 10.44a1.5 1.5 0 0 1 0 2.12l-7.44 7.44a1 1 0 0 1-1.414 0z"/>
        <path id="Oval-15" d="M5.5 8a1.5 1.5 0 1 0 0-3 1.5 1.5 0 0 0 0 3zm0 1a2.5 2.5 0 1 1 0-5 2.5 2.5 0 0 1 0 5z"/>
    </g>
</svg>