<?xml version="1.0" encoding="UTF-8"?>
<svg width="24px" height="24px" viewBox="0 0 24 24" version="1.1" xmlns="http://www.w3.org/2000/svg" xmlns:xlink="http://www.w3.org/1999/xlink">
    <!-- Generator: Sketch 52.2 (67145) - http://www.bohemiancoding.com/sketch -->
    <title>Asset</title>
    <desc>Asset</desc>
    <path id="Hand" d="M4.332,20.031C3.892,20.655 3.519,21.122 3.092,21.597C3.013,21.684 2.932,21.772 2.843,21.868C2.716,22.004 2.255,22.489 2.176,22.573C2.161,22.589 2.145,22.605 2.13,22.622L6.384,22.619C7.373,21.104 8.834,20.338 10.678,20.338C13.013,20.338 14.358,20.212 15.756,19.891C16.382,19.747 19.214,18.946 20.162,18.703C22.836,18.123 22.996,18.028 22.893,17.595C22.842,17.414 22.561,17.325 21.964,17.368C21.791,17.38 21.611,17.403 21.368,17.439C21.242,17.458 21.242,17.458 21.121,17.476C21.026,17.491 20.957,17.5 20.922,17.504L18.584,17.935C18.043,18.112 17.261,18.271 16.269,18.422C15.587,18.525 14.993,18.6 14.037,18.712C13.641,18.758 13.53,18.771 13.441,18.784C12.523,18.422 14.337,17.464 15.105,16.946C15.329,16.795 15.715,16.48 16.262,16C16.34,15.911 16.362,15.778 16.262,15.646C16.15,15.5 15.959,15.387 15.897,15.387C15.604,15.387 15.244,15.517 14.671,15.815C14.598,15.852 14.544,15.881 14.416,15.949C13.755,16.3 13.5,16.422 13.203,16.507C12.44,16.84 11.352,16.839 10.487,16.511C9.604,16.145 8.78,16.284 7.768,16.956C6.176,18.096 5.151,18.987 4.332,20.031ZM18.337,16.968L20.768,16.516C20.822,16.51 20.884,16.501 20.972,16.487C21.09,16.469 21.09,16.469 21.22,16.45C21.486,16.41 21.688,16.385 21.892,16.37C22.915,16.297 23.632,16.525 23.861,17.344C24.169,18.638 23.592,18.982 20.392,19.676C19.484,19.909 16.635,20.715 15.98,20.865C14.501,21.205 13.083,21.338 10.678,21.338C9.087,21.338 7.9,22.002 7.093,23.373L6.948,23.619L-0.104,23.623L0.624,22.792C0.901,22.477 1.156,22.198 1.448,21.888C1.53,21.8 1.988,21.318 2.111,21.186C2.197,21.094 2.275,21.01 2.349,20.927C2.75,20.482 3.098,20.047 3.529,19.434C4.437,18.277 5.527,17.331 7.193,16.138C8.481,15.281 9.649,15.081 10.856,15.582C11.471,15.815 12.289,15.815 12.86,15.57C13.125,15.491 13.35,15.383 13.946,15.066C14.077,14.996 14.134,14.966 14.211,14.927C14.92,14.559 15.395,14.387 15.897,14.387C16.301,14.387 16.769,14.663 17.057,15.039C17.425,15.522 17.463,16.12 17.038,16.602C16.687,16.956 16.386,17.232 16.136,17.43C17.069,17.288 17.802,17.139 18.337,16.968Z" style="fill-rule:nonzero;"/>
    <path id="Path" d="M5,5.95L5,4.95L19,4.95L19,5.95L5,5.95Z" style="fill-rule:nonzero;"/>
    <path id="Path-2" d="M17.191,2L6.809,2L5.098,5.422L12,13.244L18.902,5.422L17.191,2ZM19.668,6.065L12.75,13.906C12.384,14.32 11.753,14.36 11.338,13.994C11.307,13.967 11.278,13.937 11.25,13.906L4.332,6.065C4.071,5.769 4.008,5.346 4.173,4.987L5.733,1.583C5.896,1.228 6.251,1 6.642,1L17.358,1C17.749,1 18.104,1.228 18.267,1.583L19.827,4.987C19.992,5.346 19.929,5.769 19.668,6.065Z" style="fill-rule:nonzero;"/>
    <path id="Path1" d="M17.149,1.644L17.851,2.356L14.426,5.741L12.002,2.79L9.601,5.741L6.15,2.357L6.85,1.643L9.517,4.259L11.998,1.21L14.503,4.259L17.149,1.644Z" style="fill-rule:nonzero;"/>
    <path id="Path-3" d="M8.873,5.016L15.25,5.016L12.5,14L11.5,14L8.873,5.016ZM12.011,11.415L13.853,6.016L10.251,6.016L12.011,11.415Z" style="fill-rule:nonzero;"/>
</svg>