<?xml version="1.0" encoding="UTF-8"?>
<svg width="24px" height="24px" viewBox="0 0 24 24" version="1.1" xmlns="http://www.w3.org/2000/svg" xmlns:xlink="http://www.w3.org/1999/xlink">
    <!-- Generator: Sketch 52.2 (67145) - http://www.bohemiancoding.com/sketch -->
    <title>Audio</title>
    <desc>Audio</desc>
    <g id="Audio" fill="#000" fill-rule="nonzero" stroke="none" stroke-width="1">
        <path id="Rectangle-Copy-7" d="M5 14v-4H3a1 1 0 0 0-1 1v2a1 1 0 0 0 1 1h2zM3 9h3v6H3a2 2 0 0 1-2-2v-2a2 2 0 0 1 2-2z"/>
        <path id="Rectangle-Copy-7" d="M12 6.443l-6 2.25v6.614l6 2.25V6.443zM5.649 7.757l6-2.25A1 1 0 0 1 13 6.443v11.114a1 1 0 0 1-1.351.936l-6-2.25A1 1 0 0 1 5 15.307V8.693a1 1 0 0 1 .649-.936z"/>
        <path id="Line-37" d="M15.89 14.812a.5.5 0 1 1-.78-.625 3.502 3.502 0 0 0 0-4.375.5.5 0 1 1 .78-.625 4.502 4.502 0 0 1 0 5.625z"/>
        <path id="Line-37-Copy" d="M18.252 15.934a.5.5 0 0 1-.186-.682l.299-.523a5.5 5.5 0 0 0 0-5.458l-.3-.523a.5.5 0 0 1 .868-.496l.3.523a6.5 6.5 0 0 1 0 6.45l-.299.523a.5.5 0 0 1-.682.186z"/>
        <path id="Line-37-Copy-2" d="M21.297 16.957a.5.5 0 0 1-.254-.66l.556-1.251a7.5 7.5 0 0 0 0-6.092l-.556-1.25a.5.5 0 1 1 .914-.406l.556 1.25a8.5 8.5 0 0 1 0 6.904l-.556 1.251a.5.5 0 0 1-.66.254z"/>
    </g>
</svg>