<?xml version="1.0" encoding="UTF-8"?>
<svg width="24px" height="24px" viewBox="0 0 24 24" version="1.1" xmlns="http://www.w3.org/2000/svg" xmlns:xlink="http://www.w3.org/1999/xlink">
    <!-- Generator: Sketch 52.2 (67145) - http://www.bohemiancoding.com/sketch -->
    <title>BankAccount</title>
    <desc>BankAccount</desc>
    <path id="s" d="M10.086,20.739L10.086,19.794C10.725,20.061 11.271,20.194 11.724,20.194C12.252,20.194 12.517,20.014 12.517,19.654C12.517,19.422 12.299,19.219 11.863,19.044L11.428,18.87C10.954,18.679 10.616,18.472 10.413,18.252C10.21,18.031 10.108,17.758 10.108,17.433C10.108,16.98 10.281,16.628 10.626,16.377C10.972,16.126 11.455,16 12.077,16C12.466,16 12.929,16.057 13.466,16.17L13.466,17.076C12.949,16.896 12.521,16.806 12.181,16.806C11.647,16.806 11.38,16.971 11.38,17.302C11.38,17.52 11.577,17.704 11.972,17.855L12.347,17.999C12.907,18.211 13.297,18.426 13.516,18.644C13.735,18.861 13.845,19.142 13.845,19.484C13.845,19.934 13.658,20.3 13.285,20.58C12.912,20.86 12.427,21 11.828,21C11.254,21 10.673,20.913 10.086,20.739Z"/>
    <path id="Line-46" d="M12,15C12.276,15 12.5,15.224 12.5,15.5L12.5,16C12.5,16.276 12.276,16.5 12,16.5C11.724,16.5 11.5,16.276 11.5,16L11.5,15.5C11.5,15.224 11.724,15 12,15Z" style="fill-rule:nonzero;"/>
    <path id="Line" d="M12,20.5C12.276,20.5 12.5,20.724 12.5,21L12.5,21.5C12.5,21.776 12.276,22 12,22C11.724,22 11.5,21.776 11.5,21.5L11.5,21C11.5,20.724 11.724,20.5 12,20.5Z" style="fill-rule:nonzero;"/>
    <path id="Combined-Shape" d="M23,23L24,23L24,24L0,24L0,23L1,23L1,12L0,12L0,9L3,9L3,6L8,6C8,4.142 9.266,2.581 10.983,2.131L12,-0L13.017,2.131C14.734,2.581 16,4.142 16,6L21,6L21,9L24,9L24,12L23,12L23,23ZM22,23L22,12L18.658,12L20.707,14L19,14L19,23L22,23ZM18,23L18,14L17,14L17,23L18,23ZM16,23L16,14L8,14L8,23L16,23ZM7,23L7,14L6,14L6,23L7,23ZM5,23L5,14L3.293,14L5.342,12L2,12L2,23L5,23ZM9,6L11.488,6L12,5.5L12.512,6L15,6C15,4.343 13.657,3 12,3C10.343,3 9,4.343 9,6ZM20,7L13.537,7L15.585,9L20,9L20,7ZM10.463,7L4,7L4,9L8.415,9L10.463,7ZM21,10L20,10L20,11L21,11L21,10ZM3,10L3,11L4,11L4,10L3,10ZM22,11L23,11L23,10L22,10L22,11ZM2,11L2,10L1,10L1,11L2,11ZM19,11L19,10L16.61,10L17.634,11L19,11ZM5,11L6.366,11L7.39,10L5,10L5,11ZM16.669,13L18.293,13L12,7L5.707,13L7.331,13L12,8.5L16.669,13ZM8.707,13L15.293,13L12,10L8.707,13ZM3,15L4,15L4,18L3,18L3,15ZM20,15L21,15L21,18L20,18L20,15Z" style="fill-rule:nonzero;"/>
</svg>