<?xml version="1.0" encoding="UTF-8"?>
<svg width="24px" height="24px" viewBox="0 0 24 24" version="1.1" xmlns="http://www.w3.org/2000/svg" xmlns:xlink="http://www.w3.org/1999/xlink">
    <!-- Generator: Sketch 52.2 (67145) - http://www.bohemiancoding.com/sketch -->
    <title>Connections</title>
    <desc>Connections</desc>
    <g id="Connections" fill="#000" fill-rule="nonzero" stroke="none" stroke-width="1">
        <path id="Oval-6" d="M12.5 15a3.5 3.5 0 1 0 0-7 3.5 3.5 0 0 0 0 7zm0 1a4.5 4.5 0 1 1 0-9 4.5 4.5 0 0 1 0 9z"/>
        <path id="Oval-6-Copy" d="M12.5 4a1.5 1.5 0 1 0 0-3 1.5 1.5 0 0 0 0 3zm0 1a2.5 2.5 0 1 1 0-5 2.5 2.5 0 0 1 0 5z"/>
        <path id="Oval-6-Copy-4" d="M12.5 22a1.5 1.5 0 1 0 0-3 1.5 1.5 0 0 0 0 3zm0 1a2.5 2.5 0 1 1 0-5 2.5 2.5 0 0 1 0 5z"/>
        <path id="Oval-6-Copy-5" d="M21.5 9a1.5 1.5 0 1 0 0-3 1.5 1.5 0 0 0 0 3zm0 1a2.5 2.5 0 1 1 0-5 2.5 2.5 0 0 1 0 5z"/>
        <path id="Oval-6-Copy-7" d="M21.5 17a1.5 1.5 0 1 0 0-3 1.5 1.5 0 0 0 0 3zm0 1a2.5 2.5 0 1 1 0-5 2.5 2.5 0 0 1 0 5z"/>
        <path id="Oval-6-Copy-6" d="M3.5 9a1.5 1.5 0 1 0 0-3 1.5 1.5 0 0 0 0 3zm0 1a2.5 2.5 0 1 1 0-5 2.5 2.5 0 0 1 0 5z"/>
        <path id="Oval-6-Copy-8" d="M3.5 17a1.5 1.5 0 1 0 0-3 1.5 1.5 0 0 0 0 3zm0 1a2.5 2.5 0 1 1 0-5 2.5 2.5 0 0 1 0 5z"/>
        <path id="Line-7" d="M4.868 8.816l.316-.948 3.948 1.316-.316.948z"/>
        <path id="Line-8" d="M12 4h1v4h-1z"/>
        <path id="Line" d="M19.816 7.868l.316.948-3.948 1.316-.316-.948z"/>
        <path id="Line-2" d="M20.132 14.184l-.316.948-3.948-1.316.316-.948z"/>
        <path id="Line-3" d="M13 19h-1v-4h1z"/>
        <path id="Line-4" d="M5.184 15.132l-.316-.948 3.948-1.316.316.948z"/>
        <path id="Oval-6-Copy-2" d="M12.5 13a1.5 1.5 0 1 0 0-3 1.5 1.5 0 0 0 0 3zm0 1a2.5 2.5 0 1 1 0-5 2.5 2.5 0 0 1 0 5z"/>
    </g>
</svg>