<?xml version="1.0" encoding="UTF-8"?>
<svg width="24px" height="24px" viewBox="0 0 24 24" version="1.1" xmlns="http://www.w3.org/2000/svg" xmlns:xlink="http://www.w3.org/1999/xlink">
    <!-- Generator: Sketch 52.2 (67145) - http://www.bohemiancoding.com/sketch -->
    <title>ContractAward</title>
    <desc>ContractAward</desc>
    <g id="ContractAward" fill="#000" fill-rule="nonzero" stroke="none" stroke-width="1">
        <path id="Oval-2" d="M13.5 20a3.5 3.5 0 1 0 0-7 3.5 3.5 0 0 0 0 7zm0 1a4.5 4.5 0 1 1 0-9 4.5 4.5 0 0 1 0 9z"/>
        <path id="Oval-2-Copy" d="M13.5 18a1.5 1.5 0 1 0 0-3 1.5 1.5 0 0 0 0 3zm0 1a2.5 2.5 0 1 1 0-5 2.5 2.5 0 0 1 0 5z"/>
        <path id="Path-5" d="M7 3.5a.5.5 0 0 1 .5-.5h8.983a.5.5 0 1 1 0 1H7.5a.5.5 0 0 1-.5-.5z"/>
        <path id="Path-8" d="M7 6.5a.5.5 0 0 1 .5-.5h8.983a.5.5 0 1 1 0 1H7.5a.5.5 0 0 1-.5-.5z"/>
        <path id="Path-9" d="M7 9.5a.5.5 0 0 1 .5-.5h8.983a.5.5 0 1 1 0 1H7.5a.5.5 0 0 1-.5-.5z"/>
        <path id="Path-7" d="M5 20h5v1H5a1 1 0 0 1-1-1V1a1 1 0 0 1 1-1h14a1 1 0 0 1 1 1v19a1 1 0 0 1-1 1h-2v-1h2V1H5v19z"/>
        <path id="Line-57" d="M11.14 24h-1a1 1 0 0 1-.97-1.243l.966-3.863.97.242L10.14 23h1l1-3h2.72l1 3h1l-.966-3.864.97-.242.966 3.863A1 1 0 0 1 16.86 24h-1a1 1 0 0 1-.948-.684L14.14 21h-1.28l-.772 2.316a1 1 0 0 1-.948.684z"/>
    </g>
</svg>