<?xml version="1.0" encoding="UTF-8"?>
<svg width="24px" height="24px" viewBox="0 0 24 24" version="1.1" xmlns="http://www.w3.org/2000/svg" xmlns:xlink="http://www.w3.org/1999/xlink">
    <!-- Generator: Sketch 52.2 (67145) - http://www.bohemiancoding.com/sketch -->
    <title>CourtCaseParty</title>
    <desc>CourtCaseParty</desc>
    <g id="CourtCaseParty" fill="#000" fill-rule="nonzero" stroke="none" stroke-width="1">
        <path id="Rectangle-4" d="M20 22h-4a2 2 0 0 0-1.732 1h7.464A2 2 0 0 0 20 22zm-4-1h4a3 3 0 0 1 3 3H13a3 3 0 0 1 3-3z"/>
        <path id="Rectangle-5" d="M15.5 7a.5.5 0 1 0 0 1h5a.5.5 0 1 0 0-1h-5zm0-1h5a1.5 1.5 0 0 1 0 3h-5a1.5 1.5 0 0 1 0-3z"/>
        <path id="Rectangle-5-Copy" d="M15.5 16a.5.5 0 1 0 0 1h5a.5.5 0 1 0 0-1h-5zm0-1h5a1.5 1.5 0 0 1 0 3h-5a1.5 1.5 0 0 1 0-3z"/>
        <path id="Rectangle-5-Copy-2" d="M16.5 9a.5.5 0 0 0-.5.5v5a.5.5 0 0 0 .5.5h3a.5.5 0 0 0 .5-.5v-5a.5.5 0 0 0-.5-.5h-3zm0-1h3A1.5 1.5 0 0 1 21 9.5v5a1.5 1.5 0 0 1-1.5 1.5h-3a1.5 1.5 0 0 1-1.5-1.5v-5A1.5 1.5 0 0 1 16.5 8z"/>
        <path id="Rectangle-5-Copy-3" d="M21 11v2h5v-2h-5zm-1-1h7v4h-7v-4z"/>
        <path id="Rectangle-6" d="M1 19h9v-6a3 3 0 0 0-3-3H4a3 3 0 0 0-3 3v6zM4 9h3a4 4 0 0 1 4 4v7H0v-7a4 4 0 0 1 4-4z"/>
        <path id="Line-4" d="M3 12v8H2v-7a1 1 0 0 1 1-1z"/>
        <path id="Line" d="M8 12a1 1 0 0 1 1 1v7H8v-8z"/>
        <path id="Oval-3" d="M5.5 8a2.5 2.5 0 1 0 0-5 2.5 2.5 0 0 0 0 5zm0 1a3.5 3.5 0 1 1 0-7 3.5 3.5 0 0 1 0 7z"/>
        <path id="Rectangle-7" d="M1 20v3h11v-3H1zm-1-1h12a1 1 0 0 1 1 1v4H0v-5z"/>
    </g>
</svg>