<?xml version="1.0" encoding="UTF-8"?>
<svg width="24px" height="24px" viewBox="0 0 24 24" version="1.1" xmlns="http://www.w3.org/2000/svg" xmlns:xlink="http://www.w3.org/1999/xlink">
    <!-- Generator: Sketch 52.2 (67145) - http://www.bohemiancoding.com/sketch -->
    <title>Directorship</title>
    <desc>Directorship</desc>
    <g id="Directorship" fill="#000" fill-rule="nonzero" stroke="none" stroke-width="1">
        <path id="Path-10" d="M1 10v4h17v2.293L22.293 12 18 7.707V10H1zm-1 4v-4a1 1 0 0 1 1-1h16V5.293L23.707 12 17 18.707V15H1a1 1 0 0 1-1-1z"/>
        <path id="Path" d="M12 8H1a1 1 0 0 1-1-1V6a1 1 0 0 1 1-1h11V3.293L15.207 6.5 12 9.707V8zm1-1v.293l.793-.793L13 5.707V6H1v1h12z"/>
        <path id="Path-Copy-2" d="M8 4H.994a1 1 0 0 1-1-1V2a1 1 0 0 1 1-1H8V-.707L11.207 2.5 8 5.707V4zM.994 3H9v.293l.793-.793L9 1.707V2H.994v1z"/>
        <path id="Path-Copy" d="M0 18v-1a1 1 0 0 1 1-1h11v-1.707l3.207 3.207L12 20.707V19H1a1 1 0 0 1-1-1zm1 0h12v.293l.793-.793-.793-.793V17H1v1z"/>
        <path id="Path-Copy-3" d="M8 23H1.013a1 1 0 0 1-1-1v-1a1 1 0 0 1 1-1H8v-1.707l3.207 3.207L8 24.707V23zm-6.987-1H9v.293l.793-.793L9 20.707V21H1.013v1z"/>
    </g>
</svg>