<?xml version="1.0" encoding="UTF-8"?>
<svg width="24px" height="24px" viewBox="0 0 24 24" version="1.1" xmlns="http://www.w3.org/2000/svg" xmlns:xlink="http://www.w3.org/1999/xlink">
    <!-- Generator: Sketch 52.2 (67145) - http://www.bohemiancoding.com/sketch -->
    <title>Pages</title>
    <desc>Pages</desc>
    <g id="Pages" fill="#000" fill-rule="nonzero" stroke="none" stroke-width="1">
        <path id="Rectangle-Copy-6" d="M3 7v16h12V7H3zm0-1h12c.5 0 1 .5 1 1v16a1 1 0 0 1-1 1H3a1 1 0 0 1-1-1V7a1 1 0 0 1 1-1z"/>
        <path id="Line-Copy-4" d="M4 9.5a.5.5 0 0 1 .5-.5h9a.5.5 0 1 1 0 1h-9a.5.5 0 0 1-.5-.5z"/>
        <path id="Line-Copy-9" d="M4 17.5a.5.5 0 0 1 .5-.5h9a.5.5 0 1 1 0 1h-9a.5.5 0 0 1-.5-.5z"/>
        <path id="Line-Copy-5" d="M4 11.5a.5.5 0 0 1 .5-.5h7a.5.5 0 1 1 0 1h-7a.5.5 0 0 1-.5-.5z"/>
        <path id="Line-Copy-8" d="M4 15.5a.5.5 0 0 1 .5-.5h8a.5.5 0 1 1 0 1h-8a.5.5 0 0 1-.5-.5z"/>
        <path id="Line-Copy-12" d="M4 21.5a.5.5 0 0 1 .5-.5h8a.5.5 0 1 1 0 1h-8a.5.5 0 0 1-.5-.5z"/>
        <path id="Line-Copy-6" d="M4 13.5a.5.5 0 0 1 .5-.5h4a.5.5 0 1 1 0 1h-4a.5.5 0 0 1-.5-.5z"/>
        <path id="Line-Copy-10" d="M4 19.5a.5.5 0 0 1 .5-.5h2a.5.5 0 1 1 0 1h-2a.5.5 0 0 1-.5-.5z"/>
        <path id="Line-Copy-7" d="M10 13.5a.5.5 0 0 1 .5-.5h3a.5.5 0 1 1 0 1h-3a.5.5 0 0 1-.5-.5z"/>
        <path id="Line-Copy-11" d="M8 19.5a.5.5 0 0 1 .5-.5h5a.5.5 0 1 1 0 1h-5a.5.5 0 0 1-.5-.5z"/>
        <path id="Line-19" d="M5 6.5H4v-1A1.5 1.5 0 0 1 5.5 4h11A1.5 1.5 0 0 1 18 5.5v15a1.5 1.5 0 0 1-1.5 1.5h-1v-1h1a.5.5 0 0 0 .5-.5v-15a.5.5 0 0 0-.5-.5h-11a.5.5 0 0 0-.5.5v1z"/>
        <path id="Line-19-Copy" d="M7 4.5H6v-1A1.5 1.5 0 0 1 7.5 2h11A1.5 1.5 0 0 1 20 3.5v15a1.5 1.5 0 0 1-1.5 1.5h-1v-1h1a.5.5 0 0 0 .5-.5v-15a.5.5 0 0 0-.5-.5h-11a.5.5 0 0 0-.5.5v1z"/>
        <path id="Line-19-Copy-2" d="M9 2.5H8v-1A1.5 1.5 0 0 1 9.5 0h11A1.5 1.5 0 0 1 22 1.5v15a1.5 1.5 0 0 1-1.5 1.5h-1v-1h1a.5.5 0 0 0 .5-.5v-15a.5.5 0 0 0-.5-.5h-11a.5.5 0 0 0-.5.5v1z"/>
    </g>
</svg>