<?xml version="1.0" encoding="UTF-8"?>
<svg width="24px" height="24px" viewBox="0 0 24 24" version="1.1" xmlns="http://www.w3.org/2000/svg" xmlns:xlink="http://www.w3.org/1999/xlink">
    <!-- Generator: Sketch 52.2 (67145) - http://www.bohemiancoding.com/sketch -->
    <title>ShowDocuments</title>
    <desc>ShowDocuments</desc>
    <g id="ShowDocuments" fill="#000" fill-rule="nonzero" stroke="none" stroke-width="1">
        <path id="Line-Copy-5" d="M6 10.5a.5.5 0 0 1 .5-.5h11a.5.5 0 1 1 0 1h-11a.5.5 0 0 1-.5-.5z"/>
        <path id="Line-Copy-6" d="M6 7.5a.5.5 0 0 1 .5-.5h11a.5.5 0 1 1 0 1h-11a.5.5 0 0 1-.5-.5z"/>
        <path id="Line-Copy-7" d="M6 4.5a.5.5 0 0 1 .5-.5h8a.5.5 0 1 1 0 1h-8a.5.5 0 0 1-.5-.5z"/>
        <path id="Oval-16" d="M12 14c-1.759 0-3.643 1.005-5.642 3.083 2 2.079 3.883 3.084 5.642 3.084 1.759 0 3.643-1.005 5.642-3.084C15.642 15.005 13.759 14 12 14zm0 7.167c-2.269 0-4.602-1.361-7-4.084C7.398 14.361 9.731 13 12 13s4.602 1.361 7 4.083c-2.398 2.723-4.731 4.084-7 4.084z"/>
        <path id="Oval-15-Copy" d="M12 18c.663 0 1-.337 1-1s-.337-1-1-1-1 .337-1 1 .337 1 1 1zm0 1a2 2 0 1 1 0-4 2 2 0 0 1 0 4z"/>
        <path id="Rectangle-Copy-8" d="M4 1v22h16V4.414L16.586 1H4zm0-1h12.586a1 1 0 0 1 .707.293l3.414 3.414a1 1 0 0 1 .293.707V23a1 1 0 0 1-1 1H4a1 1 0 0 1-1-1V1a1 1 0 0 1 1-1z"/>
        <path id="Rectangle-Copy-9" d="M20 4l1 1h-4a1 1 0 0 1-1-1V0l1 1v3h3zm0 0l1 1h-4a1 1 0 0 1-1-1V0l1 1v3h3z"/>
    </g>
</svg>