<?xml version="1.0" encoding="UTF-8"?>
<svg width="24px" height="24px" viewBox="0 0 24 24" version="1.1" xmlns="http://www.w3.org/2000/svg" xmlns:xlink="http://www.w3.org/1999/xlink">
    <!-- Generator: Sketch 52.2 (67145) - http://www.bohemiancoding.com/sketch -->
    <title>EconomicActivity</title>
    <desc>EconomicActivity</desc>
    <g id="EconomicActivity" fill="#000" fill-rule="nonzero" stroke="none" stroke-width="1">
        <path id="Rectangle-8" d="M3 8v8h18V8H3zm0-1h18a1 1 0 0 1 1 1v8a1 1 0 0 1-1 1H3a1 1 0 0 1-1-1V8a1 1 0 0 1 1-1z"/>
        <path id="Rectangle-8-Copy" d="M3 8v2h1a1 1 0 0 0 1-1V8H3zm0-1h3v2a2 2 0 0 1-2 2H2V8a1 1 0 0 1 1-1z"/>
        <path id="Rectangle-8-Copy-4" d="M21 8h-2v1a1 1 0 0 0 1 1h1V8zm1 0v3h-2a2 2 0 0 1-2-2V7h3a1 1 0 0 1 1 1z"/>
        <path id="Rectangle-8-Copy-2" d="M3 16h2v-1a1 1 0 0 0-1-1H3v2zm-1 0v-3h2a2 2 0 0 1 2 2v2H3a1 1 0 0 1-1-1z"/>
        <path id="Rectangle-8-Copy-3" d="M21 16v-2h-1a1 1 0 0 0-1 1v1h2zm0 1h-3v-2a2 2 0 0 1 2-2h2v3a1 1 0 0 1-1 1z"/>
        <path id="Oval-4" d="M12 14c1.71 0 3-.968 3-2s-1.29-2-3-2-3 .968-3 2 1.29 2 3 2zm0 1c-2.21 0-4-1.343-4-3s1.79-3 4-3 4 1.343 4 3-1.79 3-4 3z"/>
        <path id="Path-18" d="M15 1h1.5A3.5 3.5 0 0 1 20 4.5V5a1 1 0 0 1-1 1h-1a1 1 0 0 1-1-1v-.5a.5.5 0 0 0-.5-.5H15v1.707L11.793 2.5 15-.707V1zm4 4v-.5A2.5 2.5 0 0 0 16.5 2H14v-.293l-.793.793.793.793V3h2.5A1.5 1.5 0 0 1 18 4.5V5h1z"/>
        <path id="Path-18-Copy" d="M9.001 23.001h-1.5a3.5 3.5 0 0 1-3.5-3.5v-.5a1 1 0 0 1 1-1h1a1 1 0 0 1 1 1v.5a.5.5 0 0 0 .5.5h1.5v-1.707l3.207 3.207-3.207 3.207v-1.707zm-3-4h-1v.5a2.5 2.5 0 0 0 2.5 2.5h2.5v.293l.793-.793-.793-.793v.293h-2.5a1.5 1.5 0 0 1-1.5-1.5v-.5z"/>
    </g>
</svg>