<?xml version="1.0" encoding="UTF-8"?>
<svg width="24px" height="24px" viewBox="0 0 24 24" version="1.1" xmlns="http://www.w3.org/2000/svg" xmlns:xlink="http://www.w3.org/1999/xlink">
    <!-- Generator: Sketch 52.2 (67145) - http://www.bohemiancoding.com/sketch -->
    <title>Email</title>
    <desc>Email</desc>
    <g id="Email" fill="#000" fill-rule="evenodd" stroke="none" stroke-width="1">
        <path id="@" d="M15.83 16.037a4.08 4.08 0 0 1-.243 1.436c-.162.434-.39.771-.684 1.01-.295.24-.634.36-1.017.36-.316 0-.583-.096-.8-.288a1.153 1.153 0 0 1-.387-.734h-.044a1.75 1.75 0 0 1-.632.75c-.275.181-.6.271-.975.271-.552 0-.984-.188-1.295-.566-.311-.377-.467-.89-.467-1.538 0-.75.217-1.361.652-1.83.434-.47 1.005-.705 1.712-.705.25 0 .534.023.85.07.317.045.602.109.856.19l-.138 2.596v.121c0 .655.245.983.735.983.335 0 .607-.198.817-.594.21-.395.315-.91.315-1.543 0-.667-.136-1.25-.409-1.75a2.819 2.819 0 0 0-1.162-1.158c-.503-.27-1.08-.406-1.732-.406-.82 0-1.535.17-2.142.511a3.39 3.39 0 0 0-1.392 1.458c-.32.632-.48 1.361-.48 2.19 0 1.123.296 1.986.889 2.59.592.604 1.447.905 2.562.905.773 0 1.576-.158 2.408-.475v.735c-.707.31-1.51.464-2.408.464-1.336 0-2.374-.367-3.112-1.102C7.37 19.254 7 18.228 7 16.91c0-.957.197-1.81.59-2.556a4.196 4.196 0 0 1 1.685-1.737c.73-.41 1.565-.616 2.507-.616.792 0 1.496.167 2.113.5a3.494 3.494 0 0 1 1.43 1.419c.337.613.505 1.319.505 2.118zm-5.71.723c0 .935.36 1.403 1.077 1.403.762 0 1.176-.576 1.243-1.729l.077-1.44a3.231 3.231 0 0 0-.867-.111c-.479 0-.853.165-1.124.497-.27.331-.406.791-.406 1.38z"/>
        <path id="Line-Copy-3" fill-rule="nonzero" d="M6 3.5a.5.5 0 0 1 .5-.5h8a.5.5 0 1 1 0 1h-8a.5.5 0 0 1-.5-.5z"/>
        <path id="Line-2-Copy-3" fill-rule="nonzero" d="M6 6.5a.5.5 0 0 1 .5-.5h11a.5.5 0 1 1 0 1h-11a.5.5 0 0 1-.5-.5z"/>
        <path id="Line-3-Copy-5" fill-rule="nonzero" d="M6 9.5a.5.5 0 0 1 .5-.5h11a.5.5 0 1 1 0 1h-11a.5.5 0 0 1-.5-.5z"/>
        <path id="Rectangle-Copy-12" fill-rule="nonzero" d="M4 1v22h16V4.414L16.586 1H4zm0-1h12.586a1 1 0 0 1 .707.293l3.414 3.414a1 1 0 0 1 .293.707V23a1 1 0 0 1-1 1H4a1 1 0 0 1-1-1V1a1 1 0 0 1 1-1z"/>
        <path id="Rectangle-Copy-13" fill-rule="nonzero" d="M20 4l1 1h-4a1 1 0 0 1-1-1V0l1 1v3h3zm0 0l1 1h-4a1 1 0 0 1-1-1V0l1 1v3h3z"/>
    </g>
</svg>