<?xml version="1.0" encoding="UTF-8"?>
<svg width="24px" height="24px" viewBox="0 0 24 24" version="1.1" xmlns="http://www.w3.org/2000/svg" xmlns:xlink="http://www.w3.org/1999/xlink">
    <!-- Generator: Sketch 52.2 (67145) - http://www.bohemiancoding.com/sketch -->
    <title>Family</title>
    <desc>Family</desc>
    <g id="Family" fill="none" fill-rule="evenodd" stroke="none" stroke-width="1">
        <path id="Fill-1" fill="#000" d="M21.345 8.688c0-2.063-1.667-3.74-3.716-3.74-2.05 0-3.717 1.678-3.717 3.74a3.74 3.74 0 0 0 1.988 3.31l.296.156-.323.093c-.333.097-.657.22-.963.365l-.13.062-.053-.134a2.71 2.71 0 0 0-2.52-1.716c-.96 0-1.86.522-2.347 1.362l-.063.107-.111-.053a6.634 6.634 0 0 0-1.183-.435l-.356-.094.332-.16a3.995 3.995 0 0 0 2.25-3.58C10.73 5.78 8.96 4 6.786 4S2.84 5.781 2.84 7.97c0 1.517.884 2.923 2.25 3.581l.333.16-.356.095C2.084 12.592 0 15.308 0 18.412v.444h7.82l-.062.18a4.732 4.732 0 0 0-.254 1.52V21h9.404v-.444c0-.512-.086-1.023-.254-1.52l-.061-.18L24 18.855v-.444c0-2.844-1.898-5.38-4.617-6.165l-.321-.093.296-.157a3.738 3.738 0 0 0 1.988-3.309zm-9.139 3.025c1.014 0 1.837.83 1.837 1.85s-.823 1.849-1.837 1.849a1.845 1.845 0 0 1-1.837-1.85c0-1.019.824-1.849 1.837-1.849zM3.721 7.971c0-1.7 1.374-3.082 3.062-3.082 1.689 0 3.062 1.383 3.062 3.082 0 1.7-1.373 3.083-3.062 3.083-1.687 0-3.062-1.383-3.062-3.083zm4.55 9.997H.897l.015-.15c.301-3.048 2.826-5.347 5.872-5.347a5.8 5.8 0 0 1 2.65.633l.085.043-.01.094a2.738 2.738 0 0 0 1.2 2.603l.228.152-.259.089a4.75 4.75 0 0 0-2.365 1.823l-.04.06zm.138 2.144l.024-.157c.29-1.85 1.912-3.243 3.773-3.243 1.861 0 3.483 1.394 3.772 3.243l.024.157H8.41zm14.676-2.294l.016.151-6.96-.001-.04-.06a4.755 4.755 0 0 0-2.366-1.822l-.258-.09.227-.15a2.75 2.75 0 0 0 1.215-2.159l.003-.076.066-.037a5.46 5.46 0 0 1 2.64-.688 5.492 5.492 0 0 1 5.458 4.932zm-5.457-6.277a2.848 2.848 0 0 1-2.835-2.853c0-1.574 1.272-2.853 2.835-2.853s2.835 1.28 2.835 2.853a2.847 2.847 0 0 1-2.835 2.853z"/>
    </g>
</svg>