<?xml version="1.0" encoding="UTF-8"?>
<svg width="24px" height="24px" viewBox="0 0 24 24" version="1.1" xmlns="http://www.w3.org/2000/svg" xmlns:xlink="http://www.w3.org/1999/xlink">
    <!-- Generator: Sketch 52.2 (67145) - http://www.bohemiancoding.com/sketch -->
    <title>Folder</title>
    <desc>Folder</desc>
    <g id="Folder" fill="#000" fill-rule="nonzero" stroke="none" stroke-width="1">
        <path id="Rectangle-Copy-10" d="M4.807 9L1 19h18.616L23 9H4.807zm.01-1h18.169C23.546 8 24 8.448 24 9a.987.987 0 0 1-.052.316l-3.38 10a1.013 1.013 0 0 1-.962.684H1.014C.454 20 0 19.552 0 19a.98.98 0 0 1 .065-.351l3.802-10c.148-.39.527-.649.95-.649z"/>
        <path id="Line-22" d="M1 20a1 1 0 0 1-1-1V5.5A1.5 1.5 0 0 1 1.5 4h5.61a1.5 1.5 0 0 1 1.06.44l1.415 1.414A.5.5 0 0 0 9.938 6H18.5A1.5 1.5 0 0 1 20 7.5V9h-1V7.5a.5.5 0 0 0-.5-.5H9.938a1.5 1.5 0 0 1-1.06-.44L7.464 5.147A.5.5 0 0 0 7.11 5H1.5a.5.5 0 0 0-.5.5V20z"/>
    </g>
</svg>