<?xml version="1.0" encoding="UTF-8"?>
<svg width="24px" height="24px" viewBox="0 0 24 24" version="1.1" xmlns="http://www.w3.org/2000/svg" xmlns:xlink="http://www.w3.org/1999/xlink">
    <!-- Generator: Sketch 52.2 (67145) - http://www.bohemiancoding.com/sketch -->
    <title>HyperText</title>
    <desc>HyperText</desc>
    <g id="HyperText" fill="#000" fill-rule="nonzero" stroke="none" stroke-width="1">
        <path id="Line-26" d="M9.06 21.06a.5.5 0 0 1-.706 0l-1.647-1.646a1 1 0 0 1 0-1.414l1.647-1.646a.5.5 0 0 1 .707.707l-1.647 1.646 1.647 1.647a.5.5 0 0 1 0 .707z"/>
        <path id="Line-27" d="M10.4 21.1a.5.5 0 0 1-.1-.7l3-4a.5.5 0 0 1 .8.6l-3 4a.5.5 0 0 1-.7.1z"/>
        <path id="Line-28" d="M15.146 16.146a.5.5 0 0 1 .708 0l1.646 1.647a1 1 0 0 1 0 1.414l-1.646 1.647a.5.5 0 0 1-.707-.707l1.646-1.647-1.647-1.646a.5.5 0 0 1 0-.708z"/>
        <path id="Line-Copy-2" d="M6 3.5a.5.5 0 0 1 .5-.5h8a.5.5 0 1 1 0 1h-8a.5.5 0 0 1-.5-.5z"/>
        <path id="Line-2-Copy-2" d="M6 6.5a.5.5 0 0 1 .5-.5h11a.5.5 0 1 1 0 1h-11a.5.5 0 0 1-.5-.5z"/>
        <path id="Line-3-Copy-3" d="M6 9.5a.5.5 0 0 1 .5-.5h11a.5.5 0 1 1 0 1h-11a.5.5 0 0 1-.5-.5z"/>
        <path id="Rectangle-Copy-10" d="M4 1v22h16V4.414L16.586 1H4zm0-1h12.586a1 1 0 0 1 .707.293l3.414 3.414a1 1 0 0 1 .293.707V23a1 1 0 0 1-1 1H4a1 1 0 0 1-1-1V1a1 1 0 0 1 1-1z"/>
        <path id="Rectangle-Copy-11" d="M20 4l1 1h-4a1 1 0 0 1-1-1V0l1 1v3h3zm0 0l1 1h-4a1 1 0 0 1-1-1V0l1 1v3h3z"/>
        <path id="Line-3-Copy-4" d="M6 12.5a.5.5 0 0 1 .5-.5h11a.5.5 0 1 1 0 1h-11a.5.5 0 0 1-.5-.5z"/>
    </g>
</svg>