<?xml version="1.0" encoding="UTF-8"?>
<svg width="24px" height="24px" viewBox="0 0 24 24" version="1.1" xmlns="http://www.w3.org/2000/svg" xmlns:xlink="http://www.w3.org/1999/xlink">
    <!-- Generator: Sketch 52.2 (67145) - http://www.bohemiancoding.com/sketch -->
    <title>Image</title>
    <desc>Image</desc>
    <g id="Image" fill="#000" fill-rule="nonzero" stroke="none" stroke-width="1">
        <path id="Rectangle-Copy-6" d="M1 4v16h22V4H1zm0-1h22a1 1 0 0 1 1 1v16a1 1 0 0 1-1 1H1a1 1 0 0 1-1-1V4a1 1 0 0 1 1-1z"/>
        <path id="Path-30" d="M14.5 15.793l1.94-1.94a1.5 1.5 0 0 1 2.12 0l3 3a1.5 1.5 0 0 1 .44 1.061V18a1 1 0 0 1-1 1H3.5A1.5 1.5 0 0 1 2 17.5v-.586c0-.398.158-.78.44-1.06l5-5a1.5 1.5 0 0 1 2.12 0l4.94 4.939zM3.5 18H21v-.086a.5.5 0 0 0-.146-.353l-3-3a.5.5 0 0 0-.708 0L14.5 17.207l-5.646-5.646a.5.5 0 0 0-.708 0l-5 5a.5.5 0 0 0-.146.353v.586a.5.5 0 0 0 .5.5z"/>
        <path id="Oval-13" d="M15.5 10a1.5 1.5 0 1 0 0-3 1.5 1.5 0 0 0 0 3zm0 1a2.5 2.5 0 1 1 0-5 2.5 2.5 0 0 1 0 5z"/>
    </g>
</svg>