<?xml version="1.0" encoding="UTF-8"?>
<svg width="24px" height="24px" viewBox="0 0 24 24" version="1.1" xmlns="http://www.w3.org/2000/svg" xmlns:xlink="http://www.w3.org/1999/xlink">
    <!-- Generator: Sketch 52.2 (67145) - http://www.bohemiancoding.com/sketch -->
    <title>Info</title>
    <desc>Info</desc>
    <g id="Info" fill="#000" fill-rule="nonzero" stroke="none" stroke-width="1">
        <path id="Fill-1" d="M11.132 6.883v.013c-.018.727.586 1.337 1.338 1.337.703.018 1.31-.589 1.31-1.336a1.302 1.302 0 0 0-1.298-1.337c-.744 0-1.35.593-1.35 1.323zm1.35-2.323a2.299 2.299 0 0 1 2.299 2.35c0 1.29-1.065 2.356-2.324 2.323-1.295 0-2.353-1.066-2.325-2.355.003-1.284 1.06-2.318 2.35-2.318zm1.001 13.453c-.538.098-.985-.215-1.131-.751a2.259 2.259 0 0 1-.062-.812c.03-.259.066-.46.153-.906.041-.21.059-.302.078-.414.094-.54.173-.972.35-1.93l.006-.036c.177-.958.259-1.41.358-1.98a4.58 4.58 0 0 0 .115-.958c0-.13-.004-.133-.184-.133h-3.05c.586.128.864.51.864 1.172a.98.98 0 0 1-.02.197c-.005.029-.006.036-.006.03l-.007.087c-.167.941-.3 1.694-.602 3.387l-.156 1.01-.152.99c-.093.59.532 1.325 1.108 1.405.19.031.387.05.61.06.176.007.319.009.637.01a2.82 2.82 0 0 0 1.633-.562c-.194.07-.376.116-.542.134zm2.065-.462a1.711 1.711 0 0 1-.376.646c-.757.786-1.694 1.214-2.766 1.243-.347 0-.499-.002-.693-.01a5.841 5.841 0 0 1-.718-.071c-1.09-.15-2.132-1.374-1.946-2.547a1085.72 1085.72 0 0 1 .306-1.988l.006-.033c.3-1.693.434-2.446.593-3.299 0-.069.006-.113.02-.197.005-.03.006-.037.006-.03 0-.23.036-.19-.196-.214l-.023-.003a4.774 4.774 0 0 1-.68-.12c-.421-.14-.671-.522-.667-.993.055-.432.354-.718.802-.807.087-.017.178-.027.28-.032.067-.003.12-.003.225-.003h3.445c.708 0 1.184.424 1.184 1.133 0 .368-.047.748-.134 1.149-.096.554-.178 1.009-.356 1.97l-.006.037c-.176.954-.254 1.383-.348 1.92-.021.123-.04.218-.082.434-.082.42-.115.606-.142.835-.015.123 0 .285.037.438.175-.003.351-.056.561-.15.035-.015.072-.035.149-.08l.052-.03c.14-.08.24-.13.325-.151.682-.261 1.332.25 1.142.953z"/>
        <path id="Oval-14" d="M12 23c6.075 0 11-4.925 11-11S18.075 1 12 1 1 5.925 1 12s4.925 11 11 11zm0 1C5.373 24 0 18.627 0 12S5.373 0 12 0s12 5.373 12 12-5.373 12-12 12z"/>
    </g>
</svg>