<?xml version="1.0" encoding="UTF-8"?>
<svg width="24px" height="24px" viewBox="0 0 24 24" version="1.1" xmlns="http://www.w3.org/2000/svg" xmlns:xlink="http://www.w3.org/1999/xlink">
    <!-- Generator: Sketch 52.2 (67145) - http://www.bohemiancoding.com/sketch -->
    <title>Land</title>
    <desc>Land</desc>
    <g id="Land" fill="#000" fill-rule="nonzero" stroke="none" stroke-width="1">
        <path id="Line-6" d="M9.5 18a.5.5 0 0 1-.5-.5V3a1 1 0 0 1 1-1v15.5a.5.5 0 0 1-.5.5z"/>
        <path id="Rectangle" d="M10 3v5h1.653a15.5 15.5 0 0 1 3.76.463l.417.104A14.5 14.5 0 0 0 19.347 9H20V4h-.653a15.5 15.5 0 0 1-3.76-.463l-.417-.104A14.5 14.5 0 0 0 11.653 3H10zm1.653-1a15.5 15.5 0 0 1 3.76.463l.417.104A14.5 14.5 0 0 0 19.347 3H20a1 1 0 0 1 1 1v5a1 1 0 0 1-1 1h-.653a15.5 15.5 0 0 1-3.76-.463l-.417-.104A14.5 14.5 0 0 0 11.653 9H10a1 1 0 0 1-1-1V3a1 1 0 0 1 1-1h1.653z"/>
        <path id="Line-65" d="M1 13v2H0v-2a1 1 0 0 1 1-1h1v1H1z"/>
        <path id="Line-65-Copy-3" d="M1 23h2v1H1a1 1 0 0 1-1-1v-1h1v1z"/>
        <path id="Line-65-Copy" d="M23 13h-1v-1h1a1 1 0 0 1 1 1v1h-1v-1z"/>
        <path id="Line-65-Copy-2" d="M23 23v-2h1v2a1 1 0 0 1-1 1h-1v-1h1z"/>
        <path id="Line-66-Copy-5" d="M24 17h-1v-2h1z"/>
        <path id="Line-66-Copy-11" d="M24 20h-1v-2h1z"/>
        <path id="Line-66-Copy-18" d="M1 21H0v-2h1z"/>
        <path id="Line-66-Copy-19" d="M1 18H0v-2h1z"/>
        <path id="Line-66-Copy-4" d="M3 13v-1h2v1z"/>
        <path id="Line-66-Copy-6" d="M6 13v-1h2v1z"/>
        <path id="Line-66-Copy-7" d="M19 13v-1h2v1z"/>
        <path id="Line-66-Copy-12" d="M19 24v-1h2v1z"/>
        <path id="Line-66-Copy-8" d="M16 13v-1h2v1z"/>
        <path id="Line-66-Copy-13" d="M16 24v-1h2v1z"/>
        <path id="Line-66-Copy-9" d="M13 13v-1h2v1z"/>
        <path id="Line-66-Copy-15" d="M10 24v-1h2v1z"/>
        <path id="Line-66-Copy-14" d="M13 24v-1h2v1z"/>
        <path id="Line-66-Copy-16" d="M7 24v-1h2v1z"/>
        <path id="Line-66-Copy-17" d="M4 24v-1h2v1z"/>
        <path id="Line-66-Copy-10" d="M11 13v-1h1v1z"/>
    </g>
</svg>