<?xml version="1.0" encoding="UTF-8"?>
<svg width="23px" height="23px" viewBox="0 0 23 23" version="1.1" xmlns="http://www.w3.org/2000/svg" xmlns:xlink="http://www.w3.org/1999/xlink">
    <!-- Generator: Sketch 54.1 (76490) - https://sketchapp.com -->
    <title>legalentity</title>
    <desc>Created with Sketch.</desc>
    <g id="Page-1" stroke="none" stroke-width="1" fill="none" fill-rule="evenodd">
        <g id="legalentity" fill="#000000" fill-rule="nonzero">
            <path d="M7.27349948,13.0484539 C7.09656777,12.5656598 7,12.0441072 7,11.5 C7,10.9558928 7.09656777,10.4343402 7.27349948,9.95154608 L4.4837521,9.02163031 C4.02674876,9.61653465 3.30815595,10 2.5,10 C1.11928813,10 0,8.88071187 0,7.5 C0,6.11928813 1.11928813,5 2.5,5 C3.88071187,5 5,6.11928813 5,7.5 C5,7.71195446 4.97362327,7.9177483 4.92397322,8.11427813 L7.72591706,9.04825941 C8.44275401,7.94705389 9.62849384,7.1790767 11,7.02746439 L11,4.94999094 C9.85887982,4.71835578 9,3.70947895 9,2.5 C9,1.11928813 10.1192881,0 11.5,0 C12.8807119,0 14,1.11928813 14,2.5 C14,3.70947895 13.1411202,4.71835578 12,4.94999094 L12,7.02746439 C13.3715062,7.1790767 14.557246,7.94705389 15.274083,9.04825941 L18.0760268,8.11427814 C18.0263767,7.91774831 18,7.71195446 18,7.5 C18,6.11928813 19.1192881,5 20.5,5 C21.8807119,5 23,6.11928813 23,7.5 C23,8.88071187 21.8807119,10 20.5,10 C19.691844,10 18.9732512,9.61653465 18.5162479,9.0216303 L15.7265005,9.95154607 C15.9034322,10.4343402 16,10.9558928 16,11.5 C16,12.0441072 15.9034322,12.5656598 15.7265005,13.0484539 L18.5162479,13.9783697 C18.9732512,13.3834653 19.691844,13 20.5,13 C21.8807119,13 23,14.1192881 23,15.5 C23,16.8807119 21.8807119,18 20.5,18 C19.1192881,18 18,16.8807119 18,15.5 C18,15.2880455 18.0263767,15.0822517 18.0760268,14.8857218 L15.2740829,13.9517406 C14.557246,15.0529461 13.3715062,15.8209233 12,15.9725356 L12,18.0500091 C13.1411202,18.2816442 14,19.290521 14,20.5 C14,21.8807119 12.8807119,23 11.5,23 C10.1192881,23 9,21.8807119 9,20.5 C9,19.290521 9.85887982,18.2816442 11,18.0500091 L11,15.9725356 C9.62849384,15.8209233 8.44275402,15.0529461 7.72591707,13.9517406 L4.92397322,14.8857219 C4.97362327,15.0822517 5,15.2880455 5,15.5 C5,16.8807119 3.88071187,18 2.5,18 C1.11928813,18 0,16.8807119 0,15.5 C0,14.1192881 1.11928813,13 2.5,13 C3.30815594,13 4.02674875,13.3834653 4.48375209,13.9783697 L7.27349948,13.0484539 Z M11.5,15 C13.4329966,15 15,13.4329966 15,11.5 C15,9.56700338 13.4329966,8 11.5,8 C9.56700338,8 8,9.56700338 8,11.5 C8,13.4329966 9.56700338,15 11.5,15 Z M11.5,4 C12.3284271,4 13,3.32842712 13,2.5 C13,1.67157288 12.3284271,1 11.5,1 C10.6715729,1 10,1.67157288 10,2.5 C10,3.32842712 10.6715729,4 11.5,4 Z M11.5,22 C12.3284271,22 13,21.3284271 13,20.5 C13,19.6715729 12.3284271,19 11.5,19 C10.6715729,19 10,19.6715729 10,20.5 C10,21.3284271 10.6715729,22 11.5,22 Z M20.5,9 C21.3284271,9 22,8.32842712 22,7.5 C22,6.67157288 21.3284271,6 20.5,6 C19.6715729,6 19,6.67157288 19,7.5 C19,8.32842712 19.6715729,9 20.5,9 Z M20.5,17 C21.3284271,17 22,16.3284271 22,15.5 C22,14.6715729 21.3284271,14 20.5,14 C19.6715729,14 19,14.6715729 19,15.5 C19,16.3284271 19.6715729,17 20.5,17 Z M2.5,9 C3.32842712,9 4,8.32842712 4,7.5 C4,6.67157288 3.32842712,6 2.5,6 C1.67157288,6 1,6.67157288 1,7.5 C1,8.32842712 1.67157288,9 2.5,9 Z M2.5,17 C3.32842712,17 4,16.3284271 4,15.5 C4,14.6715729 3.32842712,14 2.5,14 C1.67157288,14 1,14.6715729 1,15.5 C1,16.3284271 1.67157288,17 2.5,17 Z M11.5,14 C10.1192881,14 9,12.8807119 9,11.5 C9,10.1192881 10.1192881,9 11.5,9 C12.8807119,9 14,10.1192881 14,11.5 C14,12.8807119 12.8807119,14 11.5,14 Z M11.5,13 C12.3284271,13 13,12.3284271 13,11.5 C13,10.6715729 12.3284271,10 11.5,10 C10.6715729,10 10,10.6715729 10,11.5 C10,12.3284271 10.6715729,13 11.5,13 Z" id="Shape"></path>
        </g>
    </g>
</svg>
