<?xml version="1.0" encoding="UTF-8"?>
<svg width="24px" height="24px" viewBox="0 0 24 24" version="1.1" xmlns="http://www.w3.org/2000/svg" xmlns:xlink="http://www.w3.org/1999/xlink">
    <!-- Generator: Sketch 52.2 (67145) - http://www.bohemiancoding.com/sketch -->
    <title>License</title>
    <desc>License</desc>
    <g id="License" fill="#000" fill-rule="nonzero" stroke="none" stroke-width="1">
        <path id="Rectangle-Copy-4" d="M1 5v14h22V5H1zm0-1h22a1 1 0 0 1 1 1v14a1 1 0 0 1-1 1H1a1 1 0 0 1-1-1V5a1 1 0 0 1 1-1z"/>
        <path id="Rectangle-6-Copy" d="M3 19h8v-2a3 3 0 0 0-3-3H6a3 3 0 0 0-3 3v2zm3-6h2a4 4 0 0 1 4 4v3H2v-3a4 4 0 0 1 4-4z"/>
        <path id="Oval-3-Copy" d="M7 12a2 2 0 1 0 0-4 2 2 0 0 0 0 4zm0 1a3 3 0 1 1 0-6 3 3 0 0 1 0 6z"/>
        <path id="Line-9" d="M13 7.5a.5.5 0 0 1 .5-.5h7a.5.5 0 1 1 0 1h-7a.5.5 0 0 1-.5-.5z"/>
        <path id="Line-9-Copy" d="M13 10.5a.5.5 0 0 1 .5-.5h7a.5.5 0 1 1 0 1h-7a.5.5 0 0 1-.5-.5z"/>
        <path id="Line-9-Copy-2" d="M13 13.5a.5.5 0 0 1 .5-.5h7a.5.5 0 1 1 0 1h-7a.5.5 0 0 1-.5-.5z"/>
        <path id="Line-9-Copy-3" d="M13 16.5a.5.5 0 0 1 .5-.5h7a.5.5 0 1 1 0 1h-7a.5.5 0 0 1-.5-.5z"/>
    </g>
</svg>