<?xml version="1.0" encoding="UTF-8"?>
<svg width="24px" height="24px" viewBox="0 0 24 24" version="1.1" xmlns="http://www.w3.org/2000/svg" xmlns:xlink="http://www.w3.org/1999/xlink">
    <!-- Generator: Sketch 52.2 (67145) - http://www.bohemiancoding.com/sketch -->
    <title>Ownership</title>
    <desc>Ownership</desc>
    <g id="Ownership" fill="#000" fill-rule="nonzero" stroke="none" stroke-width="1">
        <path id="Combined-Shape" d="M15 13h1a1 1 0 0 1 .707.293L18 14.586l1.293-1.293A1 1 0 0 1 20 13h1.586l1-1-1-1H8.93l-.262-.6a4 4 0 1 0 0 3.2l.262-.6H11a1 1 0 0 1 .707.293L13 14.586l1.293-1.293A1 1 0 0 1 15 13zm-5.416-3H22l1.293 1.293a1 1 0 0 1 0 1.414l-1 1a1 1 0 0 1-.707.293H20l-1.293 1.293a1 1 0 0 1-1.414 0L16 14h-1l-1.293 1.293a1 1 0 0 1-1.414 0L11 14H9.584a5.001 5.001 0 1 1 0-4z"/>
        <path id="Oval-3-Copy-13" d="M4 13a1 1 0 1 0 0-2 1 1 0 0 0 0 2zm0 1a2 2 0 1 1 0-4 2 2 0 0 1 0 4z"/>
    </g>
</svg>