<?xml version="1.0" encoding="UTF-8"?>
<svg width="24px" height="24px" viewBox="0 0 24 24" version="1.1" xmlns="http://www.w3.org/2000/svg" xmlns:xlink="http://www.w3.org/1999/xlink">
    <!-- Generator: Sketch 52.2 (67145) - http://www.bohemiancoding.com/sketch -->
    <title>PackageZIP</title>
    <desc>PackageZIP</desc>
    <g id="PackageZIP" fill="none" fill-rule="nonzero" stroke="none" stroke-width="1">
        <path id="Rectangle-Copy-11" fill="#000" d="M4.72 9L1 19h18.28l3.333-10H4.72zm0-1h17.893a1 1 0 0 1 .948 1.316l-3.333 10a1 1 0 0 1-.949.684H1c-.552 0-1-.492-1-1.045 0-.071 1.257-3.495 3.772-10.271A1 1 0 0 1 4.721 8z"/>
        <path id="Line-22-Copy" fill="#000" d="M1 20a1 1 0 0 1-1-1V5.5A1.5 1.5 0 0 1 1.5 4h5.61a1.5 1.5 0 0 1 1.06.44l1.415 1.414A.5.5 0 0 0 9.938 6H18.5A1.5 1.5 0 0 1 20 7.5V9h-1V7.5a.5.5 0 0 0-.5-.5H9.938a1.5 1.5 0 0 1-1.06-.44L7.464 5.147A.5.5 0 0 0 7.11 5H1.5a.5.5 0 0 0-.5.5V20z"/>
        <path id="Rectangle-Copy-21" stroke="#000" d="M17.5 13.75V13l-.5.5h1l-.5-.5v.75z"/>
        <path id="Rectangle-Copy-24" stroke="#000" d="M15.5 13.75V13l-.5.5h1l-.5-.5v.75z"/>
        <path id="Rectangle-Copy-27" stroke="#000" d="M13 13.5h1l-.5-.5v1.5V13l-.5.5z"/>
        <path id="Rectangle-Copy-29" stroke="#000" d="M11 13.5h1l-.5-.5v1.5V13l-.5.5z"/>
        <path id="Rectangle-Copy-31" stroke="#000" d="M9.5 13.75V13l-.5.5h1l-.5-.5v.75z"/>
        <path id="Rectangle-Copy-22" stroke="#000" d="M18.5 13.25V14l.5-.5h-1l.5.5v-.75z"/>
        <path id="Rectangle-Copy-23" stroke="#000" d="M16.5 13.25V14l.5-.5h-1l.5.5v-.75z"/>
        <path id="Rectangle-Copy-26" stroke="#000" d="M14.5 12.5V14l.5-.5h-1l.5.5v-1.5z"/>
        <path id="Rectangle-Copy-30" stroke="#000" d="M10.5 12.5V14l.5-.5h-1l.5.5v-1.5z"/>
        <path id="Rectangle-Copy-32" stroke="#000" d="M8.5 12.5V14l.5-.5H8l.5.5v-1.5z"/>
        <path id="Rectangle-Copy-28" stroke="#000" d="M12.5 12.5V14l.5-.5h-1l.5.5v-1.5z"/>
        <path id="Rectangle-Copy-25" stroke="#000" d="M12.75 13.5H6l.5.5v-1l-.5.5h6.75z"/>
        <path id="Rectangle-Copy-17" fill="#000" d="M5 13v1h1v-1H5zm0-1h1a1 1 0 0 1 1 1v1a1 1 0 0 1-1 1H5a1 1 0 0 1-1-1v-1a1 1 0 0 1 1-1z"/>
    </g>
</svg>