<?xml version="1.0" encoding="UTF-8"?>
<svg width="24px" height="24px" viewBox="0 0 24 24" version="1.1" xmlns="http://www.w3.org/2000/svg" xmlns:xlink="http://www.w3.org/1999/xlink">
    <!-- Generator: Sketch 52.2 (67145) - http://www.bohemiancoding.com/sketch -->
    <title>DocumentPDF</title>
    <desc>DocumentPDF</desc>
    <g id="DocumentPDF" fill="#000" fill-rule="nonzero" stroke="none" stroke-width="1">
        <path id="Line-Copy-4" d="M6 3.5a.5.5 0 0 1 .5-.5h8a.5.5 0 1 1 0 1h-8a.5.5 0 0 1-.5-.5z"/>
        <path id="Line-2-Copy-4" d="M6 6.5a.5.5 0 0 1 .5-.5h11a.5.5 0 1 1 0 1h-11a.5.5 0 0 1-.5-.5z"/>
        <path id="Line-3-Copy-7" d="M6 9.5a.5.5 0 0 1 .5-.5h11a.5.5 0 1 1 0 1h-11a.5.5 0 0 1-.5-.5z"/>
        <path id="Rectangle-Copy-14" d="M4 1v22h16V4.414L16.586 1H4zm0-1h12.586a1 1 0 0 1 .707.293l3.414 3.414a1 1 0 0 1 .293.707V23a1 1 0 0 1-1 1H4a1 1 0 0 1-1-1V1a1 1 0 0 1 1-1z"/>
        <path id="Rectangle-Copy-15" d="M20 4l1 1h-4a1 1 0 0 1-1-1V0l1 1v3h3zm0 0l1 1h-4a1 1 0 0 1-1-1V0l1 1v3h3z"/>
        <path id="Line-3-Copy-8" d="M6 12.5a.5.5 0 0 1 .5-.5h11a.5.5 0 1 1 0 1h-11a.5.5 0 0 1-.5-.5z"/>
        <path id="Line-58-Copy-2" d="M12 18.5a1.5 1.5 0 0 0-1-1.415v2.83a1.5 1.5 0 0 0 1-1.415zM10.5 16a2.5 2.5 0 1 1 0 5 .5.5 0 0 1-.5-.5v-4a.5.5 0 0 1 .5-.5z"/>
        <path id="Line-60" d="M7 18h1v-1H7v1zm0 1v1.5a.5.5 0 1 1-1 0V17a1 1 0 0 1 1-1h1a1 1 0 0 1 1 1v1a1 1 0 0 1-1 1H7z"/>
        <path id="Line-61" d="M15 17v3.5a.5.5 0 1 1-1 0V17a1 1 0 0 1 1-1h1.5a.5.5 0 1 1 0 1H15z"/>
        <path id="Line-62" d="M16.5 18.5a.5.5 0 0 1-.5.5h-2v-1h2a.5.5 0 0 1 .5.5z"/>
    </g>
</svg>