<?xml version="1.0" encoding="UTF-8"?>
<svg width="24px" height="24px" viewBox="0 0 24 24" version="1.1" xmlns="http://www.w3.org/2000/svg" xmlns:xlink="http://www.w3.org/1999/xlink">
    <!-- Generator: Sketch 52.2 (67145) - http://www.bohemiancoding.com/sketch -->
    <title>Passport</title>
    <desc>Passport</desc>
    <g id="Passport" fill="#000" fill-rule="nonzero" stroke="none" stroke-width="1">
        <path id="Oval-8" d="M11.5 14a5.5 5.5 0 1 0 0-11 5.5 5.5 0 0 0 0 11zm0 1a6.5 6.5 0 1 1 0-13 6.5 6.5 0 0 1 0 13z"/>
        <path id="Oval-8-Copy" d="M11.5 14c1.214 0 2.5-2.39 2.5-5.5S12.714 3 11.5 3 9 5.39 9 8.5s1.286 5.5 2.5 5.5zm0 1C9.567 15 8 12.09 8 8.5S9.567 2 11.5 2 15 4.91 15 8.5 13.433 15 11.5 15z"/>
        <path id="Line-12" d="M11 2.042h1v12.916h-1z"/>
        <path id="Line-13" d="M5.5 9V8h12v1z"/>
        <path id="Rectangle-11" d="M4 1v22h15V1H4zm0-1h15a1 1 0 0 1 1 1v22a1 1 0 0 1-1 1H4a1 1 0 0 1-1-1V1a1 1 0 0 1 1-1z"/>
        <path id="Path-21" d="M7 18.5c0-.246-.28-.428-1-.483v1.143c.705-.153 1-.389 1-.66zM5.5 22a.5.5 0 0 1-.5-.5v-4a.5.5 0 0 1 .5-.5c1.574 0 2.5.463 2.5 1.5 0 .901-.72 1.44-2 1.678V21.5a.5.5 0 0 1-.5.5z"/>
        <path id="Line" d="M8 21v-1h3v1z"/>
        <path id="Line-35-Copy" d="M14 21.5a.5.5 0 0 1 .5-.5h1c.185 0 .402-.248.441-.562.037-.293-.078-.438-.441-.438-.991 0-1.542-.696-1.434-1.562.097-.77.682-1.438 1.434-1.438h1a.5.5 0 1 1 0 1h-1c-.185 0-.402.248-.441.562-.037.293.078.438.441.438.991 0 1.542.696 1.434 1.562-.097.77-.682 1.438-1.434 1.438h-1a.5.5 0 0 1-.5-.5z"/>
        <path id="Line-35-Copy-2" d="M11 21.5a.5.5 0 0 1 .5-.5h1c.185 0 .402-.248.441-.562.037-.293-.078-.438-.441-.438-.991 0-1.542-.696-1.434-1.562.097-.77.682-1.438 1.434-1.438h1a.5.5 0 1 1 0 1h-1c-.185 0-.402.248-.441.562-.037.293.078.438.441.438.991 0 1.542.696 1.434 1.562-.097.77-.682 1.438-1.434 1.438h-1a.5.5 0 0 1-.5-.5z"/>
        <path id="Line-Copy-4" d="M8.5 21.954a.5.5 0 0 1-.5-.5V18.61a1 1 0 0 1 .233-.642l.517-.618a.978.978 0 0 1 1.5 0l.517.618a1 1 0 0 1 .233.642v2.844a.5.5 0 1 1-1 0v-2.475a1 1 0 0 0-.184-.577l-.066-.094a.306.306 0 0 0-.5 0l-.066.094a1 1 0 0 0-.184.577v2.475a.5.5 0 0 1-.5.5z"/>
    </g>
</svg>