<?xml version="1.0" encoding="UTF-8"?>
<svg width="24px" height="24px" viewBox="0 0 24 24" version="1.1" xmlns="http://www.w3.org/2000/svg" xmlns:xlink="http://www.w3.org/1999/xlink">
    <!-- Generator: Sketch 52.2 (67145) - http://www.bohemiancoding.com/sketch -->
    <title>Payment</title>
    <desc>Payment</desc>
    <g id="Payment" fill="#000" fill-rule="nonzero" stroke="none" stroke-width="1">
        <path id="Rectangle-8-Copy-5" d="M1 15v8h18v-8H1zm0-1h18a1 1 0 0 1 1 1v8a1 1 0 0 1-1 1H1a1 1 0 0 1-1-1v-8a1 1 0 0 1 1-1z"/>
        <path id="Rectangle-8-Copy-6" d="M1 15v2h1a1 1 0 0 0 1-1v-1H1zm0-1h3v2a2 2 0 0 1-2 2H0v-3a1 1 0 0 1 1-1z"/>
        <path id="Rectangle-8-Copy-7" d="M19 15h-2v1a1 1 0 0 0 1 1h1v-2zm1 0v3h-2a2 2 0 0 1-2-2v-2h3a1 1 0 0 1 1 1z"/>
        <path id="Rectangle-8-Copy-8" d="M1 23h2v-1a1 1 0 0 0-1-1H1v2zm-1 0v-3h2a2 2 0 0 1 2 2v2H1a1 1 0 0 1-1-1z"/>
        <path id="Rectangle-8-Copy-9" d="M19 23v-2h-1a1 1 0 0 0-1 1v1h2zm0 1h-3v-2a2 2 0 0 1 2-2h2v3a1 1 0 0 1-1 1z"/>
        <path id="Oval-4-Copy" d="M10 21c1.71 0 3-.968 3-2s-1.29-2-3-2-3 .968-3 2 1.29 2 3 2zm0 1c-2.21 0-4-1.343-4-3s1.79-3 4-3 4 1.343 4 3-1.79 3-4 3z"/>
        <path id="Line-39" d="M3 13v2H2v-2a1 1 0 0 1 1-1h18a1 1 0 0 1 1 1v8a1 1 0 0 1-1 1h-2v-1h2v-8H3z"/>
        <path id="Line-39-Copy" d="M5 11v2H4v-2a1 1 0 0 1 1-1h18a1 1 0 0 1 1 1v8a1 1 0 0 1-1 1h-2v-1h2v-8H5z"/>
        <path id="Line-14-Copy" d="M11.5 0a.5.5 0 0 1 .5.5v8a.5.5 0 1 1-1 0v-8a.5.5 0 0 1 .5-.5z"/>
        <path id="Line-Copy" d="M13.5 0a.5.5 0 0 1 .5.5v8a.5.5 0 1 1-1 0v-8a.5.5 0 0 1 .5-.5z"/>
        <path id="Path-26-Copy" d="M15.75 2.75a.413.413 0 0 1-.536.041l-.482-.352A1.5 1.5 0 0 0 13.672 2h-2.465c-.32 0-.627.127-.853.354l-.147.146a.707.707 0 0 0 0 1l.147.146c.226.227.533.354.853.354h2.586c.585 0 1.147.233 1.56.646l.147.147a1.707 1.707 0 0 1 0 2.414l-.146.147A2.207 2.207 0 0 1 13.793 8h-2.465a2.5 2.5 0 0 1-1.767-.732l-.352-.482a.413.413 0 1 1 .577-.577l.482.352a1.5 1.5 0 0 0 1.06.439h2.465c.32 0 .627-.127.853-.354l.147-.146a.707.707 0 0 0 0-1l-.147-.146A1.207 1.207 0 0 0 13.793 5h-2.586a2.207 2.207 0 0 1-1.56-.646L9.5 4.207a1.707 1.707 0 0 1 0-2.414l.146-.147A2.207 2.207 0 0 1 11.207 1h2.465a2.5 2.5 0 0 1 1.767.732l.352.482a.413.413 0 0 1-.041.536z"/>
    </g>
</svg>