<?xml version="1.0" encoding="UTF-8"?>
<svg width="24px" height="24px" viewBox="0 0 24 24" version="1.1" xmlns="http://www.w3.org/2000/svg" xmlns:xlink="http://www.w3.org/1999/xlink">
    <!-- Generator: Sketch 52.6 (67491) - http://www.bohemiancoding.com/sketch -->
    <title>Person</title>
    <desc>Created with Sketch.</desc>
    <g id="Page-1" stroke="none" stroke-width="1" fill="none" fill-rule="evenodd">
        <g id="Person" fill="#000000" fill-rule="nonzero">
            <path d="M12,11 C13.6568542,11 15,9.65685425 15,8 C15,6.34314575 13.6568542,5 12,5 C10.3431458,5 9,6.34314575 9,8 C9,9.65685425 10.3431458,11 12,11 Z M12,12 C9.790861,12 8,10.209139 8,8 C8,5.790861 9.790861,4 12,4 C14.209139,4 16,5.790861 16,8 C16,10.209139 14.209139,12 12,12 Z" id="Oval-3-Copy-2"></path>
            <path d="M12,23 C18.0751322,23 23,18.0751322 23,12 C23,5.92486775 18.0751322,1 12,1 C5.92486775,1 1,5.92486775 1,12 C1,18.0751322 5.92486775,23 12,23 Z M12,24 C5.372583,24 0,18.627417 0,12 C0,5.372583 5.372583,0 12,0 C18.627417,0 24,5.372583 24,12 C24,18.627417 18.627417,24 12,24 Z" id="Oval-9"></path>
            <path d="M6.26048636,22.5410025 L6,22.3988516 L6,16 C6,13.790861 7.79086101,12 10,12 L14,12 C16.209139,12 18,13.790861 18,16 L18,22.3988516 L17.7395136,22.5410025 C15.9837925,23.4991231 14.0217637,24 12,24 C9.97823628,24 8.01620746,23.4991231 6.26048636,22.5410025 Z M7,21.8008531 C8.54132532,22.5890695 10.2451424,23 12,23 C13.7548576,23 15.4586747,22.5890695 17,21.8008531 L17,16 C17,14.3431458 15.6568542,13 14,13 L10,13 C8.34314576,13 7,14.3431458 7,16 L7,21.8008531 Z" id="Combined-Shape"></path>
        </g>
    </g>
</svg>