<?xml version="1.0" encoding="UTF-8"?>
<svg width="24px" height="24px" viewBox="0 0 24 24" version="1.1" xmlns="http://www.w3.org/2000/svg" xmlns:xlink="http://www.w3.org/1999/xlink">
    <!-- Generator: Sketch 52.2 (67145) - http://www.bohemiancoding.com/sketch -->
    <title>DocumentTXT</title>
    <desc>DocumentTXT</desc>
    <g id="DocumentTXT" fill="#000" fill-rule="nonzero" stroke="none" stroke-width="1">
        <path id="Line-Copy-2" d="M6 3.5a.5.5 0 0 1 .5-.5h8a.5.5 0 1 1 0 1h-8a.5.5 0 0 1-.5-.5z"/>
        <path id="Line-2-Copy-2" d="M6 6.5a.5.5 0 0 1 .5-.5h11a.5.5 0 1 1 0 1h-11a.5.5 0 0 1-.5-.5z"/>
        <path id="Line-3-Copy-3" d="M6 9.5a.5.5 0 0 1 .5-.5h11a.5.5 0 1 1 0 1h-11a.5.5 0 0 1-.5-.5z"/>
        <path id="Line-3-Copy-4" d="M6 12.5a.5.5 0 0 1 .5-.5h11a.5.5 0 1 1 0 1h-11a.5.5 0 0 1-.5-.5z"/>
        <path id="Line-21" d="M6 16.5a.5.5 0 0 1 .5-.5h2a.5.5 0 1 1 0 1h-2a.5.5 0 0 1-.5-.5z"/>
        <path id="Line" d="M7 16h1v4.5a.5.5 0 1 1-1 0V16z"/>
        <path id="Line-4" d="M14 16.5a.5.5 0 0 1 .5-.5h2a.5.5 0 1 1 0 1h-2a.5.5 0 0 1-.5-.5z"/>
        <path id="Line-5" d="M15 16h1v4.5a.5.5 0 1 1-1 0V16z"/>
        <path id="Line-5-Copy-2" d="M10.5 16a.5.5 0 0 1 .5.5v.586a.5.5 0 0 0 .146.353l1.415 1.415a1.5 1.5 0 0 1 .439 1.06v.586a.5.5 0 1 1-1 0v-.586a.5.5 0 0 0-.146-.353l-1.415-1.415a1.5 1.5 0 0 1-.439-1.06V16.5a.5.5 0 0 1 .5-.5z"/>
        <path id="Line-5-Copy" d="M12.5 16a.5.5 0 0 1 .5.5v.586a1.5 1.5 0 0 1-.44 1.06l-1.414 1.415a.5.5 0 0 0-.146.353v.586a.5.5 0 1 1-1 0v-.586c0-.398.158-.78.44-1.06l1.414-1.415a.5.5 0 0 0 .146-.353V16.5a.5.5 0 0 1 .5-.5z"/>
        <path id="Rectangle-Copy-10" d="M4 1v22h16V4.414L16.586 1H4zm0-1h12.586a1 1 0 0 1 .707.293l3.414 3.414a1 1 0 0 1 .293.707V23a1 1 0 0 1-1 1H4a1 1 0 0 1-1-1V1a1 1 0 0 1 1-1z"/>
        <path id="Rectangle-Copy-11" d="M20 4l1 1h-4a1 1 0 0 1-1-1V0l1 1v3h3zm0 0l1 1h-4a1 1 0 0 1-1-1V0l1 1v3h3z"/>
    </g>
</svg>