<?xml version="1.0" encoding="UTF-8"?>
<svg width="24px" height="24px" viewBox="0 0 24 24" version="1.1" xmlns="http://www.w3.org/2000/svg" xmlns:xlink="http://www.w3.org/1999/xlink">
    <!-- Generator: Sketch 52.2 (67145) - http://www.bohemiancoding.com/sketch -->
    <title>PublicBody</title>
    <desc>PublicBody</desc>
    <g id="PublicBody" fill="#000" fill-rule="nonzero" stroke="none" stroke-width="1">
        <path id="Combined-Shape-Copy" d="M17 17v-5a3 3 0 0 0-3-3h-4a3 3 0 0 0-3 3v5h10zm-7-9h4a4 4 0 0 1 4 4v6H6v-6a4 4 0 0 1 4-4z"/>
        <path id="Oval-3-Copy-3" d="M12 7a3 3 0 1 0 0-6 3 3 0 0 0 0 6zm0 1a4 4 0 1 1 0-8 4 4 0 0 1 0 8z"/>
        <path id="Rectangle-12" d="M2 18v2h20v-2H2zm0-1h20a1 1 0 0 1 1 1v2a1 1 0 0 1-1 1H2a1 1 0 0 1-1-1v-2a1 1 0 0 1 1-1z"/>
        <path id="Rectangle-12-Copy" d="M4 21v2h16v-2H4zm-1-1h18v3a1 1 0 0 1-1 1H4a1 1 0 0 1-1-1v-3z"/>
        <path id="Oval-10" d="M13.5 14c.14 0 .5-.6.5-1.5s-.36-1.5-.5-1.5-.5.6-.5 1.5.36 1.5.5 1.5zm0 1c-.828 0-1.5-1.12-1.5-2.5s.672-2.5 1.5-2.5 1.5 1.12 1.5 2.5-.672 2.5-1.5 2.5z"/>
        <path id="Oval-10-Copy" d="M9.5 14c.14 0 .5-.6.5-1.5S9.64 11 9.5 11s-.5.6-.5 1.5.36 1.5.5 1.5zm0 1C8.672 15 8 13.88 8 12.5S8.672 10 9.5 10s1.5 1.12 1.5 2.5-.672 2.5-1.5 2.5z"/>
        <path id="Line-15" d="M13 14h1v4h-1z"/>
        <path id="Line-15-Copy" d="M9 14h1v4H9z"/>
    </g>
</svg>