<?xml version="1.0" encoding="UTF-8"?>
<svg width="24px" height="24px" viewBox="0 0 24 24" version="1.1" xmlns="http://www.w3.org/2000/svg" xmlns:xlink="http://www.w3.org/1999/xlink">
    <!-- Generator: Sketch 52.2 (67145) - http://www.bohemiancoding.com/sketch -->
    <title>RealEstate</title>
    <desc>RealEstate</desc>
    <g id="RealEstate" fill="#000" fill-rule="nonzero" stroke="none" stroke-width="1">
        <path id="Path-27" d="M2.75 13.25a.363.363 0 0 1-.006-.506l8.531-8.98a1 1 0 0 1 1.45 0l8.531 8.98a.363.363 0 0 1-.006.506.354.354 0 0 1-.5 0L12 4.5l-8.75 8.75a.354.354 0 0 1-.5 0z"/>
        <path id="Rectangle-13" d="M5 13.914V23h14v-9.086l-7-7-7 7zm-.707-.707l7-7a1 1 0 0 1 1.414 0l7 7a1 1 0 0 1 .293.707V23a1 1 0 0 1-1 1H5a1 1 0 0 1-1-1v-9.086a1 1 0 0 1 .293-.707z"/>
        <path id="Rectangle-12-Copy-2" d="M10 23h4v-6h-4v6zm0-7h4a1 1 0 0 1 1 1v7H9v-7a1 1 0 0 1 1-1z"/>
        <path id="Rectangle-12-Copy-3" d="M17 5h-1v2.5l1 1V5zm-1-1h1a1 1 0 0 1 1 1v5.5l-3-3V5a1 1 0 0 1 1-1z"/>
    </g>
</svg>