<?xml version="1.0" encoding="UTF-8"?>
<svg width="24px" height="24px" viewBox="0 0 24 24" version="1.1" xmlns="http://www.w3.org/2000/svg" xmlns:xlink="http://www.w3.org/1999/xlink">
    <!-- Generator: Sketch 52.2 (67145) - http://www.bohemiancoding.com/sketch -->
    <title>Relationship</title>
    <desc>Relationship</desc>
    <g id="Relationship" fill="#000" fill-rule="nonzero" stroke="none" stroke-width="1">
        <path id="Path-22-Copy-2" d="M2 14.5l3 3V16h10v-3H5v-1.5l-3 3zM6 17v1.5a.5.5 0 0 1-.5.5h-.086a1 1 0 0 1-.707-.293L1 15c-.39-.391-.391-.61 0-1l3.794-3.715a1 1 0 0 1 .7-.285h.049c.252 0 .457.205.457.457V12h9a1 1 0 0 1 1 1v3a1 1 0 0 1-1 1H6z"/>
        <path id="Path-22-Copy-3" d="M19 8.5l3 3-3 3V13h-1.5a.5.5 0 0 0 0 1h.5v1.5a.5.5 0 0 0 .5.5h.086a1 1 0 0 0 .707-.293L23 12c.39-.391.391-.61 0-1l-3.794-3.715a1 1 0 0 0-.7-.285h-.049a.458.458 0 0 0-.457.457V9H9a1 1 0 0 0-1 1v.5a.5.5 0 1 0 1 0V10h10V8.5z"/>
    </g>
</svg>