<?xml version="1.0" encoding="UTF-8"?>
<svg width="24px" height="24px" viewBox="0 0 24 24" version="1.1" xmlns="http://www.w3.org/2000/svg" xmlns:xlink="http://www.w3.org/1999/xlink">
    <!-- Generator: Sketch 52.2 (67145) - http://www.bohemiancoding.com/sketch -->
    <title>Representation</title>
    <desc>Representation</desc>
    <g id="Representation" fill="#000" fill-rule="nonzero" stroke="none" stroke-width="1">
        <path id="Rectangle-14" d="M4 22v1h6v-1H4zm-1-1h8v2a1 1 0 0 1-1 1H4a1 1 0 0 1-1-1v-2z"/>
        <path id="Rectangle-14-Copy" d="M12 2a9 9 0 0 0-9 9v10h8v-2a3 3 0 0 1 3-3h5a2 2 0 1 0 0-4h-5.5a2.5 2.5 0 1 1 0-5h7a2.5 2.5 0 0 0 0-5H12zm8.5-1a3.5 3.5 0 1 1 0 7h-7a1.5 1.5 0 0 0 0 3H19a3 3 0 0 1 0 6h-5a2 2 0 0 0-2 2v2a1 1 0 0 1-1 1H3a1 1 0 0 1-1-1V11C2 5.477 6.477 1 12 1h8.5z"/>
        <path id="Line-16" d="M16.084 11.723l.277-.416.832.554-.277.416c-.273.41-.416.981-.416 1.723 0 .742.143 1.313.416 1.723l.277.416-.832.554-.277-.416c-.394-.59-.584-1.352-.584-2.277s.19-1.687.584-2.277z"/>
        <path id="Line-16-Copy" d="M17.179 1.73l.27-.42.842.538-.27.422c-.343.536-.521 1.277-.521 2.23 0 .953.178 1.694.521 2.23l.27.422-.843.539-.27-.421c-.456-.714-.678-1.64-.678-2.77 0-1.13.222-2.056.679-2.77z"/>
        <path id="Oval-11" d="M10.5 6a1.5 1.5 0 1 1 0-3 1.5 1.5 0 0 1 0 3zm0-1a.5.5 0 1 0 0-1 .5.5 0 0 0 0 1z"/>
        <path id="Oval-11-Copy" d="M13.5 4a1.5 1.5 0 1 1 0-3 1.5 1.5 0 0 1 0 3zm0-1a.5.5 0 1 0 0-1 .5.5 0 0 0 0 1z"/>
        <path id="Line-17" d="M4.5 19a.5.5 0 0 1 .5.5V21H4v-1.5a.5.5 0 0 1 .5-.5z"/>
        <path id="Line-17-Copy" d="M7 19a.5.5 0 0 1 .5.5V21h-1v-1.5A.5.5 0 0 1 7 19z"/>
        <path id="Line-17-Copy-2" d="M9.5 19a.5.5 0 0 1 .5.5V21H9v-1.5a.5.5 0 0 1 .5-.5z"/>
    </g>
</svg>