<?xml version="1.0" encoding="UTF-8"?>
<svg width="24px" height="24px" viewBox="0 0 24 24" version="1.1" xmlns="http://www.w3.org/2000/svg" xmlns:xlink="http://www.w3.org/1999/xlink">
    <!-- Generator: Sketch 52.2 (67145) - http://www.bohemiancoding.com/sketch -->
    <title>Sanction</title>
    <desc>Sanction</desc>
    <g id="Sanction" fill="#000" fill-rule="evenodd" stroke="none" stroke-width="1">
        <path id="Fill-1" d="M17 10h-1V3c0-.535-.447-.97-1-.97-.552 0-1 .435-1 .97h-1c0-1.086.897-1.97 2-1.97 1.104 0 2 .884 2 1.97v7z"/>
        <path id="Fill-2" d="M14 10h-1V2c0-.536-.448-.97-1-.97-.55 0-1 .435-1 .97v1h-1V2c0-1.086.899-1.97 2-1.97 1.104 0 2 .884 2 1.97v8z"/>
        <path id="Fill-3" d="M11 10h-1V3c0-.535-.449-.97-1-.97-.551 0-1 .435-1 .97v5.244H7V3c0-1.086.897-1.97 2-1.97 1.104 0 2 .884 2 1.97v7z"/>
        <path id="Fill-4" d="M10.892 24C7.092 24 4 20.966 4 17.235V8.243c0-1.085.897-1.97 2-1.97s2 .885 2 1.97v3.933c2.38.21 4 1.93 4 4.323h-1c0-2-1.407-3.345-3.5-3.345l-.5-.5v-4.41c0-.536-.449-.971-1-.971-.551 0-1 .435-1 .97v8.994C5 20.414 7.643 23 10.891 23h2.216c3.248 0 5.894-2.586 5.894-5.765V5.105c0-.535-.449-.97-1-.97-.553 0-1.001.435-1.001.97h-1c0-1.085.897-1.97 2-1.97s2 .885 2 1.971v12.13C20 20.966 16.909 24 13.108 24h-2.216z"/>
    </g>
</svg>