<?xml version="1.0" encoding="UTF-8"?>
<svg width="24px" height="24px" viewBox="0 0 24 24" version="1.1" xmlns="http://www.w3.org/2000/svg" xmlns:xlink="http://www.w3.org/1999/xlink">
    <!-- Generator: Sketch 52.2 (67145) - http://www.bohemiancoding.com/sketch -->
    <title>ShowExtractedText</title>
    <desc>ShowExtractedText</desc>
    <g id="ShowExtractedText" fill="#000" fill-rule="nonzero" stroke="none" stroke-width="1">
        <path id="Oval-16-Copy" d="M12 14c-1.759 0-3.643 1.005-5.642 3.083 2 2.079 3.883 3.084 5.642 3.084 1.759 0 3.643-1.005 5.642-3.084C15.642 15.005 13.759 14 12 14zm0 7.167c-2.269 0-4.602-1.361-7-4.084C7.398 14.361 9.731 13 12 13s4.602 1.361 7 4.083c-2.398 2.723-4.731 4.084-7 4.084z"/>
        <path id="Oval-15-Copy-2" d="M12 18c.663 0 1-.337 1-1s-.337-1-1-1-1 .337-1 1 .337 1 1 1zm0 1a2 2 0 1 1 0-4 2 2 0 0 1 0 4z"/>
        <path id="Line-Copy-2" d="M6.5 10.954a.5.5 0 0 1-.5-.5V7.61a1 1 0 0 1 .233-.642l.517-.618a.978.978 0 0 1 1.5 0l.517.618A1 1 0 0 1 9 7.61v2.844a.5.5 0 1 1-1 0V7.979a1 1 0 0 0-.184-.577l-.066-.094a.306.306 0 0 0-.5 0l-.066.094A1 1 0 0 0 7 7.979v2.475a.5.5 0 0 1-.5.5z"/>
        <path id="Line-Copy-3" d="M15.94 10.124l.563-.066A.445.445 0 0 1 17 10.5a.5.5 0 0 1-.5.5H15a1 1 0 0 1-1-1V7.707A1 1 0 0 1 14.293 7L15 6.293A1 1 0 0 1 15.707 6h.793a.5.5 0 1 1 0 1h-.379a1 1 0 0 0-.707.293l-.14.14a1 1 0 0 0-.292.66l-.053 1.087a.906.906 0 0 0 1.01.944z"/>
        <path id="Line" d="M6 10V9h3v1z"/>
        <path id="Line-5-Copy-5" d="M13 9.707v.44a.854.854 0 0 1-.854.853H11a1 1 0 0 1-1-1V6.854c0-.472.382-.854.854-.854h.439a1 1 0 0 1 .707.293l.5.5a1 1 0 0 1 0 1.414l-.293.293.5.5a1 1 0 0 1 .293.707zm-1-.03a.594.594 0 0 0-.271-.499L11 8.708V10h.677A.323.323 0 0 0 12 9.677zm-1-1.384l.723-.573a.315.315 0 0 0 .027-.47.854.854 0 0 0-.604-.25H11v1.293z"/>
        <path id="Rectangle-Copy-10" d="M4 1v22h16V4.414L16.586 1H4zm0-1h12.586a1 1 0 0 1 .707.293l3.414 3.414a1 1 0 0 1 .293.707V23a1 1 0 0 1-1 1H4a1 1 0 0 1-1-1V1a1 1 0 0 1 1-1z"/>
        <path id="Rectangle-Copy-10" d="M20 4l1 1h-4a1 1 0 0 1-1-1V0l1 1v3h3zm0 0l1 1h-4a1 1 0 0 1-1-1V0l1 1v3h3z"/>
    </g>
 </svg>