<?xml version="1.0" encoding="UTF-8"?>
<svg width="24px" height="24px" viewBox="0 0 24 24" version="1.1" xmlns="http://www.w3.org/2000/svg" xmlns:xlink="http://www.w3.org/1999/xlink">
    <!-- Generator: Sketch 52.2 (67145) - http://www.bohemiancoding.com/sketch -->
    <title>Similar</title>
    <desc>Similar</desc>
    <g id="Similar" fill="#000" fill-rule="nonzero" stroke="none" stroke-width="1">
        <path id="Rectangle-6-Copy" d="M23 10.5A2.5 2.5 0 0 0 20.5 8h-4a2.5 2.5 0 0 0-2.5 2.5.5.5 0 1 1-1 0A3.5 3.5 0 0 1 16.5 7h4a3.5 3.5 0 0 1 3.5 3.5V19a1 1 0 0 1-1 1h-9a1 1 0 0 1-1-1v-1.5a.5.5 0 1 1 1 0V19h9v-8.5z"/>
        <path id="Rectangle-6-Copy-2" d="M1 10.5A2.5 2.5 0 0 1 3.5 8h4a2.5 2.5 0 0 1 2.5 2.5.5.5 0 1 0 1 0A3.5 3.5 0 0 0 7.5 7h-4A3.5 3.5 0 0 0 0 10.5V19a1 1 0 0 0 1 1h9a1 1 0 0 0 1-1v-1.5a.5.5 0 1 0-1 0V19H1v-8.5z"/>
        <path id="Oval-3" d="M5.5 6a2.5 2.5 0 1 0 0-5 2.5 2.5 0 0 0 0 5zm0 1a3.5 3.5 0 1 1 0-7 3.5 3.5 0 0 1 0 7z"/>
        <path id="Oval-3-Copy" d="M18.5 6a2.5 2.5 0 1 0 0-5 2.5 2.5 0 0 0 0 5zm0 1a3.5 3.5 0 1 1 0-7 3.5 3.5 0 0 1 0 7z"/>
        <path id="Rectangle-19" d="M2 20v3h7v-3H2zm-1-1h9v4a1 1 0 0 1-1 1H2a1 1 0 0 1-1-1v-4z"/>
        <path id="Rectangle-19-Copy" d="M15 20v3h7v-3h-7zm-1-1h9v4a1 1 0 0 1-1 1h-7a1 1 0 0 1-1-1v-4z"/>
        <path id="Path-22" d="M19.086 14.1L16 11v2H6v2h10v2.172l3.086-3.073zM15 12v-2a.5.5 0 0 1 .5-.5h.078a1 1 0 0 1 .717.302l3.5 3.592a1 1 0 0 1-.003 1.414l-3.5 3.408a1 1 0 0 1-.698.284H15.5a.5.5 0 0 1-.5-.5v-2H6a1 1 0 0 1-1-1v-2a1 1 0 0 1 1-1h9z"/>
    </g>
</svg>