<?xml version="1.0" encoding="UTF-8"?>
<svg width="24px" height="24px" viewBox="0 0 24 24" version="1.1" xmlns="http://www.w3.org/2000/svg" xmlns:xlink="http://www.w3.org/1999/xlink">
    <!-- Generator: Sketch 52.2 (67145) - http://www.bohemiancoding.com/sketch -->
    <title>Source</title>
    <desc>Source</desc>
    <g id="Source" fill="#000" fill-rule="nonzero" stroke="none" stroke-width="1">
        <path id="Rectangle-Copy-6" d="M4 1v22h16V4.414L16.586 1H4zm0-1h12.586a1 1 0 0 1 .707.293l3.414 3.414a1 1 0 0 1 .293.707V23a1 1 0 0 1-1 1H4a1 1 0 0 1-1-1V1a1 1 0 0 1 1-1z"/>
        <path id="Rectangle-Copy-11" d="M7 4v3h3V4H7zm0-1h3a1 1 0 0 1 1 1v3a1 1 0 0 1-1 1H7a1 1 0 0 1-1-1V4a1 1 0 0 1 1-1z"/>
        <path id="Rectangle-Copy-16" d="M14 3h.5a.5.5 0 1 1 0 1H14v3h3v-.5a.5.5 0 1 1 1 0V7a1 1 0 0 1-1 1h-3a1 1 0 0 1-1-1V4c0-.552.5-1 1-1z"/>
        <path id="Rectangle-Copy-12" d="M7 18v3h3v-3H7zm0-1h3a1 1 0 0 1 1 1v3a1 1 0 0 1-1 1H7a1 1 0 0 1-1-1v-3a1 1 0 0 1 1-1z"/>
        <path id="Rectangle-Copy-13" d="M14 18v3h3v-3h-3zm0-1h3a1 1 0 0 1 1 1v3a1 1 0 0 1-1 1h-3a1 1 0 0 1-1-1v-3a1 1 0 0 1 1-1z"/>
        <path id="Rectangle-Copy-14" d="M14 11v3h3v-3h-3zm0-1h3a1 1 0 0 1 1 1v3a1 1 0 0 1-1 1h-3a1 1 0 0 1-1-1v-3a1 1 0 0 1 1-1z"/>
        <path id="Rectangle-Copy-15" d="M7 11v3h3v-3H7zm0-1h3a1 1 0 0 1 1 1v3a1 1 0 0 1-1 1H7a1 1 0 0 1-1-1v-3a1 1 0 0 1 1-1z"/>
        <path id="Rectangle-Copy-7" d="M20 4l1 1h-4a1 1 0 0 1-1-1V0l1 1v3h3zm0 0l1 1h-4a1 1 0 0 1-1-1V0l1 1v3h3z"/>
    </g>
</svg>