<?xml version="1.0" encoding="UTF-8"?>
<svg width="24px" height="24px" viewBox="0 0 24 24" version="1.1" xmlns="http://www.w3.org/2000/svg" xmlns:xlink="http://www.w3.org/1999/xlink">
    <!-- Generator: Sketch 52.2 (67145) - http://www.bohemiancoding.com/sketch -->
    <title>Associate</title>
    <desc>Associate</desc>
    <g id="Associate" fill="#000" fill-rule="nonzero" stroke="none" stroke-width="1">
        <path id="Oval-12" d="M16.5 11a3.5 3.5 0 1 0 0-7 3.5 3.5 0 0 0 0 7zm0 1a4.5 4.5 0 1 1 0-9 4.5 4.5 0 0 1 0 9z"/>
        <path id="Oval-12-Copy" d="M6.5 10a2.5 2.5 0 1 0 0-5 2.5 2.5 0 0 0 0 5zm0 1a3.5 3.5 0 1 1 0-7 3.5 3.5 0 0 1 0 7z"/>
        <path id="Rectangle-10" d="M14 13a4 4 0 0 0-4 4v6h13v-6a4 4 0 0 0-4-4h-5zm0-1h5a5 5 0 0 1 5 5v6a1 1 0 0 1-1 1H10a1 1 0 0 1-1-1v-6a5 5 0 0 1 5-5z"/>
        <path id="Line-40" d="M8 23.5a.5.5 0 0 1-.5.5h-6A1.5 1.5 0 0 1 0 22.5v-7A4.5 4.5 0 0 1 4.5 11h4c.522 0 1.191.234 2.009.702.28.16.385.51.241.798a.426.426 0 0 1-.648.142C9.568 12.214 9.034 12 8.5 12h-4A3.5 3.5 0 0 0 1 15.5v7a.5.5 0 0 0 .5.5h6a.5.5 0 0 1 .5.5z"/>
        <path id="Line-41" d="M4 24H3v-8a1 1 0 0 1 1-1v9z"/>
        <path id="Line-42" d="M13 24h-1v-7a1 1 0 0 1 1-1v8z"/>
        <path id="Line-43" d="M21 24h-1v-8a1 1 0 0 1 1 1v7z"/>
    </g>
</svg>