<?xml version="1.0" encoding="UTF-8"?>
<svg width="24px" height="24px" viewBox="0 0 24 24" version="1.1" xmlns="http://www.w3.org/2000/svg" xmlns:xlink="http://www.w3.org/1999/xlink">
    <!-- Generator: Sketch 52.2 (67145) - http://www.bohemiancoding.com/sketch -->
    <title>TaxRoll</title>
    <desc>TaxRoll</desc>
    <g id="TaxRoll" fill="none" fill-rule="nonzero" stroke="none" stroke-width="1">
        <path id="Rectangle-8-Copy-17" fill="#000" d="M8 23v-6H3v6h5zm-5-7h6v8H3a1 1 0 0 1-1-1v-6a1 1 0 0 1 1-1z"/>
        <path id="Rectangle-8-Copy-18" fill="#000" d="M17 17v6h5v-6h-5zm-1-1h6a1 1 0 0 1 1 1v6a1 1 0 0 1-1 1h-6v-8z"/>
        <path id="Rectangle-8-Copy-19" fill="#000" d="M9 22v1h7v-1H9zm-1-1h9v3H8v-3z"/>
        <path id="Rectangle-8-Copy-20" fill="#000" d="M9 16v5h7v-5H9zm-1-1h9v7H8v-7z"/>
        <path id="Rectangle-8-Copy-22" fill="#000" d="M9 14v1h7v-1H9zm-1-1h9v3H8v-3z"/>
        <path id="Rectangle-8-Copy-21" fill="#000" d="M12.5 10a3.5 3.5 0 0 0-3.465 3h6.93a3.5 3.5 0 0 0-3.465-3zm0-1a4.5 4.5 0 0 1 4.5 4.5v.5H8v-.5A4.5 4.5 0 0 1 12.5 9z"/>
        <path id="Rectangle-9-Copy-48" fill="#000" d="M16 7V5h-3v2h3zm-3-3h3a1 1 0 0 1 1 1v2a1 1 0 0 1-1 1h-4V5a1 1 0 0 1 1-1z"/>
        <path id="Rectangle-9-Copy-44" stroke="#000" d="M10.5 19v2l.5-.5h-1l.5.5v-2zm0 0v-2l-.5.5h1l-.5-.5v2z"/>
        <path id="Rectangle-9-Copy-46" stroke="#000" d="M14.5 19v2l.5-.5h-1l.5.5v-2zm0 0v-2l-.5.5h1l-.5-.5v2z"/>
        <path id="Rectangle-9-Copy-45" stroke="#000" d="M12.5 17.5h1v3h-1z"/>
        <path id="Line-14" fill="#000" d="M3.5 2a.5.5 0 0 1 .5.5v8a.5.5 0 0 1-1 0v-8a.5.5 0 0 1 .5-.5z"/>
        <path id="Line" fill="#000" d="M5.5 2a.5.5 0 0 1 .5.5v8a.5.5 0 0 1-1 0v-8a.5.5 0 0 1 .5-.5z"/>
        <path id="Path-26" fill="#000" d="M7.75 4.75a.413.413 0 0 1-.536.041l-.482-.352A1.5 1.5 0 0 0 5.672 4H3.207c-.32 0-.627.127-.853.354l-.147.146a.707.707 0 0 0 0 1l.147.146c.226.227.533.354.853.354h2.586c.585 0 1.147.233 1.56.646l.147.147a1.707 1.707 0 0 1 0 2.414l-.146.147A2.207 2.207 0 0 1 5.793 10H3.328a2.5 2.5 0 0 1-1.767-.732l-.352-.482a.413.413 0 1 1 .577-.577l.482.352A1.5 1.5 0 0 0 3.328 9h2.465c.32 0 .627-.127.853-.354l.147-.146a.707.707 0 0 0 0-1l-.147-.146A1.207 1.207 0 0 0 5.793 7H3.207a2.207 2.207 0 0 1-1.56-.646L1.5 6.207a1.707 1.707 0 0 1 0-2.414l.146-.147A2.207 2.207 0 0 1 3.207 3h2.465a2.5 2.5 0 0 1 1.767.732l.352.482a.413.413 0 0 1-.041.536z"/>
        <path id="Line-38" fill="#000" d="M12 7h1v3h-1z"/>
        <path id="Line-38-Copy" fill="#000" d="M4 18h1v2H4z"/>
        <path id="Line-38-Copy-2" fill="#000" d="M6 18h1v2H6z"/>
        <path id="Line-38-Copy-3" fill="#000" d="M18 18h1v2h-1z"/>
        <path id="Line-38-Copy-4" fill="#000" d="M20 18h1v2h-1z"/>
    </g>
</svg>