<?xml version="1.0" encoding="UTF-8"?>
<svg width="24px" height="24px" viewBox="0 0 24 24" version="1.1" xmlns="http://www.w3.org/2000/svg" xmlns:xlink="http://www.w3.org/1999/xlink">
    <!-- Generator: Sketch 52.2 (67145) - http://www.bohemiancoding.com/sketch -->
    <title>Vehicle</title>
    <desc>Vehicle</desc>
    <g id="Vehicle" fill="#000" fill-rule="nonzero" stroke="none" stroke-width="1">
        <path id="Combined-Shape" d="M22 17a1 1 0 0 0 1-1V7a1 1 0 0 0-1-1H9a1 1 0 0 0-1 1v10h8.05a2.5 2.5 0 0 1 4.9 0H22zm-2 .5a1.5 1.5 0 1 0-2.915.5H7V7a2 2 0 0 1 2-2h13a2 2 0 0 1 2 2v9a2 2 0 0 1-2 2h-2.085c.055-.156.085-.325.085-.5z"/>
        <path id="Combined-Shape" d="M7 12H2a1 1 0 0 0-1 1v3a1 1 0 0 0 1 1h1.14c.332-1.143 1.221-2 2.36-2 .578 0 1.091.22 1.5.587V12zm0 6c0-1.105-.672-2-1.5-2S4 16.895 4 18H2a2 2 0 0 1-2-2v-3a2 2 0 0 1 2-2h6v7H7z"/>
        <path id="Path-28-Copy-2" d="M2.477 11H7V8H4.354a1 1 0 0 0-.928.629L2.477 11zm1.877-4H8v5H1l1.497-3.743A2 2 0 0 1 4.354 7z"/>
        <path id="Oval-12-Copy-2" d="M5.5 19a1.5 1.5 0 1 0 0-3 1.5 1.5 0 0 0 0 3zm0 1a2.5 2.5 0 1 1 0-5 2.5 2.5 0 0 1 0 5z"/>
        <path id="Oval-12-Copy-4" d="M4.5 17.5a1 1 0 1 1 2 0 1 1 0 0 1-2 0z"/>
        <path id="Oval-12-Copy-5" d="M17.5 17.5a1 1 0 1 1 2 0 1 1 0 0 1-2 0z"/>
        <path id="Oval-12-Copy-3" d="M18.5 19a1.5 1.5 0 1 0 0-3 1.5 1.5 0 0 0 0 3zm0 1a2.5 2.5 0 1 1 0-5 2.5 2.5 0 0 1 0 5z"/>
    </g>
</svg>