<?xml version="1.0" encoding="UTF-8"?>
<svg width="24px" height="24px" viewBox="0 0 24 24" version="1.1" xmlns="http://www.w3.org/2000/svg" xmlns:xlink="http://www.w3.org/1999/xlink">
    <!-- Generator: Sketch 52.2 (67145) - http://www.bohemiancoding.com/sketch -->
    <title>Video</title>
    <desc>Video</desc>
    <g id="Video" fill="none" fill-rule="nonzero" stroke="none" stroke-width="1">
        <path id="Rectangle-Copy-7" stroke="#000" d="M.5 3.5h23v17H.5z"/>
        <path id="Line-24" fill="#000" d="M10 13.357l3.593-1.857L10 9.643v3.714zm.46-4.603l3.592 1.858a1 1 0 0 1 0 1.776l-3.593 1.858A1 1 0 0 1 9 13.357V9.643a1 1 0 0 1 1.46-.889z"/>
        <path id="Line-25" fill="#000" d="M3 17.5a.5.5 0 0 1 .5-.5h17a.5.5 0 1 1 0 1h-17a.5.5 0 0 1-.5-.5z"/>
        <path id="Rectangle-17" stroke="#000" d="M5.5 16.5h1v2h-1z"/>
    </g>
</svg>
