<?xml version="1.0" encoding="UTF-8"?>
<svg width="24px" height="24px" viewBox="0 0 24 24" version="1.1" xmlns="http://www.w3.org/2000/svg" xmlns:xlink="http://www.w3.org/1999/xlink">
    <!-- Generator: Sketch 52.2 (67145) - http://www.bohemiancoding.com/sketch -->
    <title>WorkbookXCEL</title>
    <desc>WorkbookXCEL</desc>
    <g id="WorkbookXCEL" fill="#000" fill-rule="nonzero" stroke="none" stroke-width="1">
        <path id="Line-3-Copy-6" d="M15 6h1.5A1.5 1.5 0 0 1 18 7.5v4a1.5 1.5 0 0 1-1.5 1.5h-9A1.5 1.5 0 0 1 6 11.5v-7A1.5 1.5 0 0 1 7.5 3h6A1.5 1.5 0 0 1 15 4.5V6zm-7.5 6h9a.5.5 0 0 0 .5-.5v-4a.5.5 0 0 0-.5-.5H14V4.5a.5.5 0 0 0-.5-.5h-6a.5.5 0 0 0-.5.5v7a.5.5 0 0 0 .5.5z"/>
        <path id="Line-5-Copy-3" d="M6.5 16a.5.5 0 0 1 .5.5v.586a.5.5 0 0 0 .146.353l1.415 1.415A1.5 1.5 0 0 1 9 19.914v.586a.5.5 0 1 1-1 0v-.586a.5.5 0 0 0-.146-.353l-1.415-1.415A1.5 1.5 0 0 1 6 17.086V16.5a.5.5 0 0 1 .5-.5z"/>
        <path id="Line-5-Copy-4" d="M8.5 16a.5.5 0 0 1 .5.5v.586a1.5 1.5 0 0 1-.44 1.06l-1.414 1.415a.5.5 0 0 0-.146.353v.586a.5.5 0 1 1-1 0v-.586c0-.398.158-.78.44-1.06l1.414-1.415A.5.5 0 0 0 8 17.086V16.5a.5.5 0 0 1 .5-.5z"/>
        <path id="Line-23" d="M11 20h1.5a.5.5 0 1 1 0 1H11a1 1 0 0 1-1-1v-3.5a.5.5 0 1 1 1 0V20z"/>
        <path id="Line-35" d="M14 20.5a.5.5 0 0 1 .5-.5h1c.185 0 .402-.248.441-.562.037-.293-.078-.438-.441-.438-.991 0-1.542-.696-1.434-1.562.097-.77.682-1.438 1.434-1.438h1a.5.5 0 1 1 0 1h-1c-.185 0-.402.248-.441.562-.037.293.078.438.441.438.991 0 1.542.696 1.434 1.562-.097.77-.682 1.438-1.434 1.438h-1a.5.5 0 0 1-.5-.5z"/>
        <path id="Rectangle-Copy-14" d="M4 1v22h16V4.414L16.586 1H4zm0-1h12.586a1 1 0 0 1 .707.293l3.414 3.414a1 1 0 0 1 .293.707V23a1 1 0 0 1-1 1H4a1 1 0 0 1-1-1V1a1 1 0 0 1 1-1z"/>
        <path id="Rectangle-Copy-15" d="M20 4l1 1h-4a1 1 0 0 1-1-1V0l1 1v3h3zm0 0l1 1h-4a1 1 0 0 1-1-1V0l1 1v3h3z"/>
        <path id="Line-36" d="M6 7V6h9v1z"/>
        <path id="Line" d="M6 10V9h12v1z"/>
        <path id="Line-2" d="M10 3h1v10h-1z"/>
        <path id="Line-3" d="M14 6h1v7h-1z"/>
    </g>
</svg>